<?xml version="1.0" encoding="UTF-8"?>
<svg version="1.1" xmlns="http://www.w3.org/2000/svg" width="470" height="457">
<path d="M0 0 C2.82184056 2.04594277 5.10124163 4.3602515 7.54296875 6.84375 C9.31639016 8.32421684 11.10849184 9.78257492 12.91796875 11.21875 C16.82363052 14.37573934 20.4450656 17.61261372 23.92578125 21.2265625 C25.5973956 22.89817685 27.34792054 24.39865642 29.16796875 25.90625 C32.40178519 28.62034594 34.8898722 31.56228848 37.54296875 34.84375 C38.45046875 35.730625 39.35796875 36.6175 40.29296875 37.53125 C42.54296875 39.84375 42.54296875 39.84375 43.54296875 42.84375 C44.53296875 43.17375 45.52296875 43.50375 46.54296875 43.84375 C48.33203125 45.5859375 48.33203125 45.5859375 50.16796875 47.71875 C50.77898437 48.41742188 51.39 49.11609375 52.01953125 49.8359375 C53.54296875 51.84375 53.54296875 51.84375 54.54296875 54.84375 C55.53296875 55.17375 56.52296875 55.50375 57.54296875 55.84375 C61.54296875 60.30089286 61.54296875 60.30089286 61.54296875 62.84375 C62.53296875 63.17375 63.52296875 63.50375 64.54296875 63.84375 C66.28286036 66.2943431 67.86970101 68.71389857 69.41796875 71.28125 C69.86269531 72.01408203 70.30742187 72.74691406 70.765625 73.50195312 C71.64329723 74.96002151 72.51551444 76.42138952 73.38183594 77.88623047 C74.31425162 79.45816255 75.27222174 81.01492358 76.23828125 82.56640625 C84.61153219 97.18199098 82.93873139 118.98021825 79.13818359 134.78613281 C73.47847201 154.3513704 58.24324411 173.60829391 40.75 183.8984375 C25.01737942 192.26754288 9.08722089 191.9954433 -8.22949219 192.00488281 C-10.21973257 192.00951834 -12.20997207 192.01454398 -14.20021057 192.01992798 C-19.57795654 192.03297392 -24.95569007 192.03948033 -30.33344936 192.04393864 C-33.69598747 192.04687901 -37.05852224 192.05098536 -40.42105865 192.05544281 C-50.95078665 192.06909046 -61.48050695 192.07877328 -72.01024318 192.0826447 C-84.15108062 192.08713394 -96.29180597 192.10473336 -108.43260932 192.1336453 C-117.83244041 192.15525173 -127.23223991 192.16534825 -136.63209558 192.16668582 C-142.24089651 192.16773359 -147.84959166 192.17363693 -153.45836639 192.19150543 C-158.72797115 192.20797047 -163.99739034 192.21014922 -169.26701164 192.20136642 C-171.1991545 192.2005955 -173.1313073 192.20494599 -175.06342506 192.21482468 C-177.70337281 192.22753045 -180.34266167 192.22167516 -182.98260498 192.21124268 C-183.74457428 192.21929908 -184.50654357 192.22735548 -185.29160285 192.23565602 C-190.37638343 192.18874476 -193.9654945 191.29051446 -198.45703125 188.84375 C-201.04365551 184.42145691 -201.94665077 180.91798862 -201.45703125 175.84375 C-199.84765625 173.02734375 -199.84765625 173.02734375 -197.70703125 170.28125 C-197.0109375 169.37246094 -196.31484375 168.46367187 -195.59765625 167.52734375 C-194.53804687 166.19896484 -194.53804687 166.19896484 -193.45703125 164.84375 C-192.750625 163.90660156 -192.04421875 162.96945312 -191.31640625 162.00390625 C-190.7028125 161.29105469 -190.08921875 160.57820312 -189.45703125 159.84375 C-188.79703125 159.84375 -188.13703125 159.84375 -187.45703125 159.84375 C-187.21082031 159.28816406 -186.96460938 158.73257813 -186.7109375 158.16015625 C-185.21698719 155.40030412 -183.40644717 153.19058141 -181.39453125 150.78125 C-180.5953125 149.81832031 -179.79609375 148.85539063 -178.97265625 147.86328125 C-178.1425 146.86683594 -177.31234375 145.87039063 -176.45703125 144.84375 C-174.85079749 142.88711175 -173.24655244 140.92883884 -171.64453125 138.96875 C-170.58298828 137.67324219 -170.58298828 137.67324219 -169.5 136.3515625 C-168.07430554 134.60147484 -166.68344954 132.82267871 -165.3203125 131.0234375 C-164.39798828 129.94449219 -164.39798828 129.94449219 -163.45703125 128.84375 C-162.79703125 128.84375 -162.13703125 128.84375 -161.45703125 128.84375 C-161.18890625 128.27140625 -160.92078125 127.6990625 -160.64453125 127.109375 C-159.41570489 124.76490366 -158.03180949 122.71970062 -156.45703125 120.59375 C-155.94140625 119.88734375 -155.42578125 119.1809375 -154.89453125 118.453125 C-154.42015625 117.92203125 -153.94578125 117.3909375 -153.45703125 116.84375 C-152.79703125 116.84375 -152.13703125 116.84375 -151.45703125 116.84375 C-151.20953125 116.30234375 -150.96203125 115.7609375 -150.70703125 115.203125 C-149.17714521 112.3154651 -147.36552128 109.74598982 -145.45703125 107.09375 C-144.75578125 106.10890625 -144.05453125 105.1240625 -143.33203125 104.109375 C-142.71328125 103.36171875 -142.09453125 102.6140625 -141.45703125 101.84375 C-140.79703125 101.84375 -140.13703125 101.84375 -139.45703125 101.84375 C-139.19132324 101.26866699 -138.92561523 100.69358398 -138.65185547 100.10107422 C-137.406153 97.74762816 -135.99243205 95.81248973 -134.33984375 93.7265625 C-133.73269531 92.95441406 -133.12554687 92.18226563 -132.5 91.38671875 C-131.86707031 90.58878906 -131.23414063 89.79085937 -130.58203125 88.96875 C-125.63514178 82.78323253 -125.63514178 82.78323253 -121.13671875 76.2734375 C-120.58242187 75.47164063 -120.028125 74.66984375 -119.45703125 73.84375 C-118.79703125 73.84375 -118.13703125 73.84375 -117.45703125 73.84375 C-117.45703125 72.85375 -117.45703125 71.86375 -117.45703125 70.84375 C-116.45703125 69.84375 -115.45703125 68.84375 -114.45703125 67.84375 C-107.44614434 56.37138961 -107.23540262 45.45488832 -107.51953125 32.171875 C-107.45703125 29.84375 -107.45703125 29.84375 -106.45703125 27.84375 C-104.2606288 27.47277586 -102.04778399 27.19732239 -99.83203125 26.96875 C-91.88925769 25.90649457 -87.51868003 24.40957979 -82.2421875 18.20703125 C-78.54421655 13.92020523 -74.71274091 9.77753211 -70.83203125 5.65625 C-70.19007813 4.97111328 -69.548125 4.28597656 -68.88671875 3.58007812 C-67.64144096 2.25441868 -66.39162185 0.93300662 -65.13671875 -0.38354492 C-63.70820904 -1.89116251 -62.30971186 -3.42712686 -60.91796875 -4.96875 C-43.23074943 -20.69072273 -16.93119879 -10.60388226 0 0 Z " fill="#F37E21" transform="translate(358.45703125,264.15625)"/>
<path d="M0 0 C2.08215829 -0.00542683 4.16431273 -0.01255262 6.24645996 -0.02124023 C11.87416063 -0.03940288 17.50156647 -0.03243701 23.12927198 -0.01972389 C29.02593729 -0.00956771 34.92257805 -0.01899608 40.81924438 -0.02526855 C50.71320106 -0.03253389 60.60703807 -0.02298286 70.50097656 -0.00390625 C81.94090561 0.01789638 93.38054987 0.01078195 104.82047212 -0.01121187 C114.6508641 -0.02935451 124.48117031 -0.03193082 134.31157362 -0.0214572 C140.17965024 -0.01522069 146.04759285 -0.01439181 151.91566086 -0.02760315 C157.42664718 -0.03914567 162.93726519 -0.03116497 168.44821167 -0.00802612 C170.47148654 -0.00273207 172.49479235 -0.00426467 174.51805496 -0.01307678 C177.27713578 -0.02398731 180.03503181 -0.01032352 182.79403687 0.00964355 C183.99825714 -0.00374078 183.99825714 -0.00374078 185.22680509 -0.0173955 C188.98471642 0.03545781 191.1478381 0.37535437 194.34310341 2.42432404 C198.09948411 6.30439329 198.01105601 10.04867238 197.96728516 15.29492188 C196.86617786 21.23226515 192.55424622 24.45397714 188.36962891 28.51757812 C186.84303561 30.3077371 185.34282628 32.12072654 183.86962891 33.95507812 C183.13615234 34.85742188 182.40267578 35.75976562 181.64697266 36.68945312 C180.04894167 38.67397187 178.45833528 40.66321221 176.87353516 42.65820312 C175.66503906 44.16640625 175.66503906 44.16640625 174.43212891 45.70507812 C173.70123047 46.62675781 172.97033203 47.5484375 172.21728516 48.49804688 C171.60755859 49.16449219 170.99783203 49.8309375 170.36962891 50.51757812 C169.70962891 50.51757812 169.04962891 50.51757812 168.36962891 50.51757812 C167.70962891 51.83757813 167.04962891 53.15757813 166.36962891 54.51757812 C165.70962891 54.51757812 165.04962891 54.51757812 164.36962891 54.51757812 C164.03962891 55.83757813 163.70962891 57.15757813 163.36962891 58.51757812 C162.70962891 58.51757812 162.04962891 58.51757812 161.36962891 58.51757812 C160.96647461 59.39047485 160.96647461 59.39047485 160.55517578 60.28100586 C159.35681451 62.54175289 158.02966662 64.33394477 156.40087891 66.30273438 C155.82982422 66.99818359 155.25876953 67.69363281 154.67041016 68.41015625 C154.07615234 69.12623047 153.48189453 69.84230469 152.86962891 70.58007812 C151.69139012 72.00751058 150.51426142 73.43586025 149.33837891 74.86523438 C148.81695312 75.49437744 148.29552734 76.12352051 147.75830078 76.77172852 C146.5482609 78.29300053 145.44787036 79.90021594 144.36962891 81.51757812 C143.70962891 81.51757812 143.04962891 81.51757812 142.36962891 81.51757812 C142.12470703 82.06285156 141.87978516 82.608125 141.62744141 83.16992188 C140.08890299 86.04154172 138.22318938 88.49140405 136.24462891 91.08007812 C135.43522043 92.14326045 134.62664501 93.20707742 133.81884766 94.27148438 C133.41069824 94.80918457 133.00254883 95.34688477 132.58203125 95.90087891 C130.05639179 99.26873725 127.63037398 102.70998758 125.19384766 106.14257812 C123.36962891 108.51757813 123.36962891 108.51757813 121.39697266 110.43945312 C118.04805401 113.87225606 115.73318848 117.99694453 113.17431641 122.03320312 C112.57876953 122.85304688 111.98322266 123.67289062 111.36962891 124.51757812 C110.70962891 124.51757812 110.04962891 124.51757812 109.36962891 124.51757812 C109.2264624 125.10514893 109.0832959 125.69271973 108.93579102 126.2980957 C108.44498439 128.22216772 107.8841392 130.12811408 107.31103516 132.02929688 C105.96001612 137.43212091 106.19134072 142.7968063 106.30712891 148.33007812 C106.34154016 150.37818508 106.37168574 152.42636944 106.39697266 154.47460938 C106.41493896 155.37155518 106.43290527 156.26850098 106.45141602 157.19262695 C106.36962891 159.51757812 106.36962891 159.51757812 105.36962891 162.51757812 C102.75282767 163.82597874 100.60378444 163.70177456 97.68212891 163.83007812 C91.48618226 164.31923181 87.40700073 165.33516326 82.97900391 169.97460938 C81.73457646 171.45517818 80.55040282 172.98576331 79.36962891 174.51757812 C77.18212891 176.89257812 77.18212891 176.89257812 75.36962891 178.51757812 C74.70962891 178.51757812 74.04962891 178.51757812 73.36962891 178.51757812 C73.32837891 179.07445312 73.28712891 179.63132813 73.24462891 180.20507812 C72.16527669 183.05765184 70.46856605 184.20871929 68.10009766 186.03710938 C66.16829091 187.68982891 64.66496279 189.48744924 63.05712891 191.45507812 C55.91879331 199.73367302 47.66453225 203.29972935 36.97509766 204.86914062 C24.73180593 205.64069135 12.99779622 199.43738026 3.36962891 192.51757812 C2.33966797 191.80601562 1.30970703 191.09445313 0.24853516 190.36132812 C-5.43495761 186.36478289 -5.43495761 186.36478289 -7.63037109 184.51757812 C-7.63037109 183.85757813 -7.63037109 183.19757813 -7.63037109 182.51757812 C-8.14986328 182.30617187 -8.66935547 182.09476563 -9.20458984 181.87695312 C-12.66480227 179.93789689 -15.46890711 177.37576044 -18.44287109 174.76757812 C-19.03390625 174.25453125 -19.62494141 173.74148437 -20.23388672 173.21289062 C-21.42931867 172.17519833 -22.62292152 171.1353952 -23.81469727 170.09350586 C-26.22084519 168.0050717 -28.65909329 165.95521335 -31.1015625 163.90942383 C-33.54551816 161.68441725 -35.52268431 159.05761092 -37.63037109 156.51757812 C-39.0900336 155.31176997 -40.55038905 154.10656376 -42.02880859 152.92382812 C-45.23222064 150.11107609 -47.89032477 146.77215803 -50.63037109 143.51757812 C-53.42615376 140.2103718 -56.19118297 136.95676625 -59.25537109 133.89257812 C-61.5970099 131.55093932 -63.67844157 129.1924445 -65.63037109 126.51757812 C-65.63037109 125.85757813 -65.63037109 125.19757813 -65.63037109 124.51757812 C-66.29037109 124.51757812 -66.95037109 124.51757812 -67.63037109 124.51757812 C-69.98535198 120.46210236 -72.31631914 116.39453818 -74.6171875 112.30810547 C-75.46785343 110.80478403 -76.33438147 109.31045363 -77.20458984 107.81835938 C-84.31056105 94.9081114 -84.80518365 76.68858623 -80.73583984 62.64648438 C-74.93951673 46.24063696 -66.87485495 32.93623671 -54.63037109 20.51757812 C-53.89947266 19.77378906 -53.16857422 19.03 -52.41552734 18.26367188 C-46.32397357 12.46705366 -39.20570409 8.11761135 -31.63037109 4.51757812 C-30.95253759 4.17491158 -30.27470409 3.83224503 -29.57633018 3.47919464 C-20.03773409 -0.68407239 -10.19982492 -0.04471645 0 0 Z " fill="#F37E20" transform="translate(112.63037109375,0.482421875)"/>
<path d="M0 0 C1.1063102 -0.01710022 1.1063102 -0.01710022 2.23497009 -0.0345459 C3.79225004 -0.05335966 5.34960806 -0.06647944 6.90698242 -0.07421875 C9.24741472 -0.09350339 11.58422837 -0.15555094 13.92382812 -0.21875 C24.03199158 -0.363488 31.31511824 1.21417745 40.21484375 6.40625 C41.53850952 7.14488281 41.53850952 7.14488281 42.88891602 7.8984375 C45.28222998 9.26831792 47.62609814 10.69554556 49.96484375 12.15625 C50.75632812 12.63707031 51.5478125 13.11789063 52.36328125 13.61328125 C58.08217682 17.14091615 58.08217682 17.14091615 59.21484375 19.40625 C60.20484375 19.73625 61.19484375 20.06625 62.21484375 20.40625 C63.93288311 22.0199093 65.59347899 23.69548062 67.21484375 25.40625 C68.02824219 26.25703125 68.84164062 27.1078125 69.6796875 27.984375 C76.65302542 35.51954583 82.7714072 42.43549618 85.57421875 52.4609375 C86.21346344 54.69300374 86.21346344 54.69300374 88.21484375 57.40625 C88.53102589 59.27737236 88.53102589 59.27737236 88.6230011 61.459198 C88.67982827 62.73787845 88.67982827 62.73787845 88.73780346 64.04239082 C88.7680124 65.00019384 88.79822134 65.95799686 88.8293457 66.94482422 C88.88563755 68.5067365 88.88563755 68.5067365 88.9430666 70.10020256 C89.47334355 86.99133843 89.37983791 103.89961291 89.38210082 120.79706812 C89.38281869 123.81510121 89.38496633 126.83312996 89.38759804 129.85116196 C89.39678626 140.40094027 89.40093973 150.9507061 89.40014648 161.50048828 C89.39954205 171.30975931 89.41018158 181.11897601 89.42589015 190.92823327 C89.43895615 199.39073923 89.44433103 207.85322735 89.44369107 216.31574333 C89.44343654 221.35364392 89.44626579 226.39149568 89.45686913 231.42938614 C89.46653835 236.14921474 89.46663745 240.86894749 89.45935249 245.58877945 C89.45830637 247.31816752 89.46067116 249.04756156 89.46671295 250.77693939 C89.47442947 253.13836267 89.46979107 255.49945424 89.46208191 257.86087036 C89.46722547 258.54295693 89.47236904 259.22504349 89.47766846 259.92779934 C89.44749046 264.11504547 88.73231355 267.50924038 87.21484375 271.40625 C86.22484375 271.40625 85.23484375 271.40625 84.21484375 271.40625 C84.21484375 272.06625 84.21484375 272.72625 84.21484375 273.40625 C80.62882024 275.19926176 77.11503777 275.13310434 73.21484375 274.40625 C67.3842783 271.34434063 62.78386277 267.08949449 58.21484375 262.40625 C55.57666299 260.29570539 52.91185844 258.2260145 50.2265625 256.17578125 C49.23076172 255.29986328 49.23076172 255.29986328 48.21484375 254.40625 C48.21484375 253.74625 48.21484375 253.08625 48.21484375 252.40625 C46.89484375 252.07625 45.57484375 251.74625 44.21484375 251.40625 C44.21484375 250.74625 44.21484375 250.08625 44.21484375 249.40625 C43.44140625 249.0659375 43.44140625 249.0659375 42.65234375 248.71875 C39.3193737 246.92407382 36.06780704 244.90659985 33.21484375 242.40625 C33.21484375 241.74625 33.21484375 241.08625 33.21484375 240.40625 C32.22484375 240.40625 31.23484375 240.40625 30.21484375 240.40625 C29.02676571 239.25211704 27.84625819 238.08888018 26.7109375 236.8828125 C25.09990458 235.29281134 23.41592869 233.99313836 21.58984375 232.65625 C15.18449482 227.95101237 9.07956193 222.86635134 3.04296875 217.69921875 C-5.02285517 210.79603611 -13.15617979 203.98593748 -22.1328125 198.27734375 C-23.00808594 197.65988281 -23.88335937 197.04242188 -24.78515625 196.40625 C-24.78515625 195.74625 -24.78515625 195.08625 -24.78515625 194.40625 C-26.10515625 194.07625 -27.42515625 193.74625 -28.78515625 193.40625 C-28.78515625 192.74625 -28.78515625 192.08625 -28.78515625 191.40625 C-29.51347656 191.138125 -30.24179687 190.87 -30.9921875 190.59375 C-33.73486307 189.42763339 -35.99161931 188.046605 -38.47265625 186.40625 C-47.06200364 181.18127607 -56.25056956 180.59624164 -66.0625 181.8125 C-74.99220346 182.85714472 -74.99220346 182.85714472 -78.97265625 180.59375 C-81.41131922 176.30506684 -82.06288793 172.23445671 -82.78515625 167.40625 C-83.14213432 165.22990683 -83.14213432 165.22990683 -83.78515625 163.40625 C-85.76893295 162.12188266 -85.76893295 162.12188266 -87.78515625 161.40625 C-87.78515625 160.74625 -87.78515625 160.08625 -87.78515625 159.40625 C-88.77515625 159.07625 -89.76515625 158.74625 -90.78515625 158.40625 C-91.96091358 156.99534121 -93.13254375 155.58067257 -94.27734375 154.14453125 C-97.67376233 150.22897097 -101.82096421 146.93556557 -105.90234375 143.7578125 C-113.26963198 137.83618083 -117.51609226 129.79384661 -118.78515625 120.40625 C-120.02395338 108.28509654 -116.47638003 97.89485209 -109.37109375 88.13671875 C-108.84773438 87.56566406 -108.324375 86.99460937 -107.78515625 86.40625 C-107.12515625 86.40625 -106.46515625 86.40625 -105.78515625 86.40625 C-105.66978516 85.81021973 -105.55441406 85.21418945 -105.43554688 84.60009766 C-104.37150588 81.01095639 -101.72751377 78.52964592 -99.28515625 75.78125 C-98.46821289 74.84647827 -98.46821289 74.84647827 -97.63476562 73.89282227 C-96.02597948 72.05694395 -94.40739777 70.23023975 -92.78515625 68.40625 C-92.00140625 67.52066406 -91.21765625 66.63507813 -90.41015625 65.72265625 C-88.21807887 63.26865786 -86.0030277 60.8369475 -83.78515625 58.40625 C-82.88641181 57.40261853 -81.9879913 56.39869692 -81.08984375 55.39453125 C-75.51329391 49.20507011 -69.72937056 43.30303732 -63.66015625 37.59375 C-63.00837402 36.97661133 -62.3565918 36.35947266 -61.68505859 35.72363281 C-61.0761377 35.15870117 -60.4672168 34.59376953 -59.83984375 34.01171875 C-59.29827637 33.50793701 -58.75670898 33.00415527 -58.19873047 32.48510742 C-56.78515625 31.40625 -56.78515625 31.40625 -54.78515625 31.40625 C-54.29015625 29.92125 -54.29015625 29.92125 -53.78515625 28.40625 C-51.65486076 26.54224144 -49.53146982 24.80634643 -47.28515625 23.09375 C-46.65383789 22.60608154 -46.02251953 22.11841309 -45.37207031 21.6159668 C-32.04899286 11.40625 -32.04899286 11.40625 -28.78515625 11.40625 C-28.78515625 10.74625 -28.78515625 10.08625 -28.78515625 9.40625 C-27.85703125 8.9525 -26.92890625 8.49875 -25.97265625 8.03125 C-22.74594236 6.4640867 -22.74594236 6.4640867 -19.78515625 4.40625 C-17.79879327 3.69998761 -15.79667366 3.03731429 -13.78515625 2.40625 C-12.44239624 1.89288086 -12.44239624 1.89288086 -11.07250977 1.36914062 C-7.34024014 0.27593072 -3.85592467 0.04723676 0 0 Z " fill="#F37E21" transform="translate(379.78515625,27.59375)"/>
<path d="M0 0 C1.2375 1.051875 1.2375 1.051875 2.5 2.125 C2.5 2.785 2.5 3.445 2.5 4.125 C3.39912109 4.54265625 3.39912109 4.54265625 4.31640625 4.96875 C6.96283391 6.37007842 9.01492338 8.25331433 11.25390625 10.22265625 C14.0566782 12.59648223 16.9582763 14.83191602 19.875 17.0625 C20.43461426 17.49175781 20.99422852 17.92101562 21.57080078 18.36328125 C24.15124439 20.33960011 26.73912411 22.30426086 29.33984375 24.25390625 C30.56380859 25.18009766 30.56380859 25.18009766 31.8125 26.125 C32.53050781 26.66125 33.24851563 27.1975 33.98828125 27.75 C34.48714844 28.20375 34.98601563 28.6575 35.5 29.125 C35.5 29.785 35.5 30.445 35.5 31.125 C36.08918213 31.39957031 36.67836426 31.67414063 37.28540039 31.95703125 C39.41497681 33.08015919 41.08611606 34.27840791 42.93359375 35.8125 C43.57683594 36.34190186 44.22007813 36.87130371 44.8828125 37.41674805 C45.56085938 37.98047119 46.23890625 38.54419434 46.9375 39.125 C52.74843035 43.91727854 58.61702729 48.59447697 64.68920898 53.05273438 C65.99481515 54.03136591 67.25319626 55.07247561 68.5 56.125 C68.5 56.785 68.5 57.445 68.5 58.125 C70.48 58.62 70.48 58.62 72.5 59.125 C72.5 59.785 72.5 60.445 72.5 61.125 C73.22832031 61.37894531 73.95664063 61.63289063 74.70703125 61.89453125 C77.67787332 63.20336377 79.70881899 64.72713036 82.1875 66.8125 C87.12159105 70.86079725 92.22302651 74.53968787 97.5 78.125 C98.29792969 78.67414063 99.09585938 79.22328125 99.91796875 79.7890625 C103.99932072 82.5646553 108.01691813 85.05588529 112.5 87.125 C112.5 87.785 112.5 88.445 112.5 89.125 C118.00061488 89.86192448 123.44100643 90.15948627 128.98828125 90.0859375 C130.45273682 90.06756836 130.45273682 90.06756836 131.94677734 90.04882812 C133.92522866 90.01652688 135.90351396 89.97115898 137.88134766 89.91210938 C138.80608887 89.89728516 139.73083008 89.88246094 140.68359375 89.8671875 C141.51431396 89.8451123 142.34503418 89.82303711 143.20092773 89.80029297 C146.06870888 90.205321 147.40687853 91.15508961 149.5 93.125 C150.1875 95.61328125 150.1875 95.61328125 150.5 98.4375 C151.23645314 103.45997771 152.42095917 106.15204409 155.5 110.125 C155.83 111.115 156.16 112.105 156.5 113.125 C158.50016466 114.33382096 158.50016466 114.33382096 160.5 115.125 C160.5 115.785 160.5 116.445 160.5 117.125 C161.098125 117.393125 161.69625 117.66125 162.3125 117.9375 C164.49847854 119.12417406 165.91332594 120.22099113 167.5 122.125 C167.5 122.785 167.5 123.445 167.5 124.125 C168.04527344 124.34800781 168.59054688 124.57101562 169.15234375 124.80078125 C172.23060913 126.53710731 174.58031141 128.83701097 177.0625 131.3125 C177.54396484 131.76947266 178.02542969 132.22644531 178.52148438 132.69726562 C185.62660618 139.74374819 186.63779997 147.86527412 186.6875 157.4375 C186.50858069 184.17780357 162.36887001 203.27122368 144.75 221.0625 C143.96310791 221.86244385 143.17621582 222.6623877 142.36547852 223.48657227 C141.26417603 224.58956665 141.26417603 224.58956665 140.140625 225.71484375 C139.48610352 226.37347412 138.83158203 227.03210449 138.15722656 227.71069336 C136.5 229.125 136.5 229.125 134.5 229.125 C134.17 230.115 133.84 231.105 133.5 232.125 C132.00390625 233.6328125 132.00390625 233.6328125 130.0625 235.25 C125.92659824 238.75361462 121.90430684 242.36470153 117.89453125 246.01171875 C96.3182574 265.05374836 76.19702924 272.66937366 47.5 271.125 C32.7885261 269.47435639 17.37863095 259.88943225 6.5 250.125 C6.5 249.465 6.5 248.805 6.5 248.125 C5.6646875 247.7846875 5.6646875 247.7846875 4.8125 247.4375 C1.8134779 245.73535232 -0.14499245 243.64822238 -2.5 241.125 C-2.9640625 240.66609375 -3.428125 240.2071875 -3.90625 239.734375 C-27.37221826 215.02021694 -21.66890097 172.87546911 -21.70018864 141.6634419 C-21.70314846 138.85665462 -21.70725757 136.04987117 -21.71169281 133.24308586 C-21.72528802 124.43640561 -21.73500132 115.62973436 -21.7388947 106.82304436 C-21.74339906 96.69663597 -21.7610895 86.57036097 -21.7898953 76.44399315 C-21.81149525 68.57602241 -21.82159757 60.70808934 -21.82293582 52.84008926 C-21.8239822 48.1553443 -21.82985845 43.47072614 -21.84775543 38.78601265 C-21.86421368 34.39531811 -21.8664027 30.0048463 -21.85761642 25.61413193 C-21.85684568 24.00568355 -21.86119372 22.39722322 -21.87107468 20.78880501 C-21.88378387 18.59128345 -21.87792451 16.39455301 -21.86749268 14.19703674 C-21.86895924 12.96882989 -21.8704258 11.74062304 -21.8719368 10.47519779 C-21.45417671 6.71224953 -20.50446722 4.32399751 -18.5 1.125 C-12.26507845 -2.54260091 -6.49709852 -3.48058849 0 0 Z " fill="#F37E21" transform="translate(21.5,155.875)"/>
<path d="M0 0 C0.33 0.66 0.66 1.32 1 2 C0.28972656 2.13277344 -0.42054687 2.26554688 -1.15234375 2.40234375 C-2.07144531 2.57894531 -2.99054687 2.75554687 -3.9375 2.9375 C-4.85402344 3.11152344 -5.77054688 3.28554687 -6.71484375 3.46484375 C-8.95289844 3.77714988 -8.95289844 3.77714988 -10 5 C-10.11018065 7.59203191 -10.15496333 10.15799267 -10.15821838 12.75099182 C-10.16315636 13.57264027 -10.16809434 14.39428872 -10.17318195 15.24083561 C-10.18863508 18.01545401 -10.19693859 20.79004914 -10.20532227 23.56469727 C-10.21489466 25.54511726 -10.22490435 27.52553519 -10.23532104 29.50595093 C-10.26244543 34.90033458 -10.28341407 40.29472705 -10.30332303 45.68914151 C-10.32513629 51.31995341 -10.3525477 56.95073789 -10.37937927 62.58152771 C-10.42936939 73.25231039 -10.47428469 83.92310823 -10.51740164 94.59392065 C-10.56672013 106.73883364 -10.62165818 118.88371915 -10.67708123 131.02860558 C-10.79099823 156.01904476 -10.897816 181.00951029 -11 206 C-12.32 206 -13.64 206 -15 206 C-18.31551808 184.85352228 -17.17880626 162.85451571 -17.20018864 141.50551033 C-17.20314821 138.69672074 -17.20725725 135.88793496 -17.21169281 133.07914734 C-17.22528719 124.26766373 -17.23500119 115.45618911 -17.2388947 106.64469576 C-17.24340048 96.50978736 -17.26109763 86.37501214 -17.2898953 76.24014425 C-17.31148578 68.36709364 -17.32159704 60.49408068 -17.32293582 52.62100077 C-17.32398278 47.93237537 -17.32987146 43.24387659 -17.34775543 38.55528259 C-17.36419749 34.16212885 -17.36641063 29.76919775 -17.35761642 25.37602425 C-17.35684484 23.76554328 -17.36120477 22.15505044 -17.37107468 20.54459953 C-17.38375713 18.34672718 -17.37793913 16.14964885 -17.36749268 13.95178223 C-17.36895924 12.72265358 -17.3704258 11.49352493 -17.3719368 10.22714996 C-16.96390888 6.6868515 -16.15503543 4.81339451 -14 2 C-9.3172317 -0.28693336 -5.09327536 -0.17563018 0 0 Z " fill="#F4852E" transform="translate(17,156)"/>
<path d="M0 0 C2.08215829 -0.00542683 4.16431273 -0.01255262 6.24645996 -0.02124023 C11.87416063 -0.03940288 17.50156647 -0.03243701 23.12927198 -0.01972389 C29.02593729 -0.00956771 34.92257805 -0.01899608 40.81924438 -0.02526855 C50.71320106 -0.03253389 60.60703807 -0.02298286 70.50097656 -0.00390625 C81.94090561 0.01789638 93.38054987 0.01078195 104.82047212 -0.01121187 C114.6508641 -0.02935451 124.48117031 -0.03193082 134.31157362 -0.0214572 C140.17965024 -0.01522069 146.04759285 -0.01439181 151.91566086 -0.02760315 C157.42664718 -0.03914567 162.93726519 -0.03116497 168.44821167 -0.00802612 C170.47148654 -0.00273207 172.49479235 -0.00426467 174.51805496 -0.01307678 C177.27713578 -0.02398731 180.03503181 -0.01032352 182.79403687 0.00964355 C183.99825714 -0.00374078 183.99825714 -0.00374078 185.22680509 -0.0173955 C188.91890427 0.0345322 191.19647574 0.41595838 194.40560341 2.29932404 C196.36962891 4.51757813 196.36962891 4.51757813 196.36962891 8.51757812 C195.70962891 8.51757812 195.04962891 8.51757812 194.36962891 8.51757812 C194.36962891 10.49757813 194.36962891 12.47757813 194.36962891 14.51757812 C194.03962891 14.51757812 193.70962891 14.51757812 193.36962891 14.51757812 C192.93650391 12.84695313 192.93650391 12.84695313 192.49462891 11.14257812 C191.67721561 7.51466721 191.67721561 7.51466721 189.36962891 5.51757812 C186.61218832 5.31198491 183.95397578 5.23249309 181.19467163 5.23910522 C180.33950034 5.23331282 179.48432904 5.22752042 178.60324347 5.22155249 C175.72113517 5.20446893 172.83918619 5.20166884 169.95703125 5.19873047 C167.8976451 5.18943805 165.83826273 5.17927042 163.77888489 5.16828918 C158.17381824 5.14089771 152.56877684 5.12581276 146.96366072 5.11286116 C141.11129311 5.0972705 135.2589774 5.07046742 129.40664673 5.04483032 C118.31799342 4.99797032 107.22933043 4.96126123 96.14062846 4.92815745 C83.51926662 4.88998698 70.8979568 4.8405636 58.27663875 4.79017329 C32.30767398 4.68674607 6.33867583 4.59752086 -19.63037109 4.51757812 C-19.63037109 5.17757813 -19.63037109 5.83757813 -19.63037109 6.51757812 C-20.55269531 6.68193359 -20.55269531 6.68193359 -21.49365234 6.84960938 C-22.70601562 7.08744141 -22.70601562 7.08744141 -23.94287109 7.33007812 C-25.14363281 7.55630859 -25.14363281 7.55630859 -26.36865234 7.78710938 C-28.89273039 8.60231248 -29.83005283 9.63542722 -31.63037109 11.51757812 C-34.31787109 11.70507812 -34.31787109 11.70507812 -36.63037109 11.51757812 C-36.93974609 12.41476562 -36.93974609 12.41476562 -37.25537109 13.33007812 C-39.1585291 16.35782949 -41.41402175 16.93864299 -44.63037109 18.51757812 C-49.05812571 21.57335244 -53.19224077 24.74053376 -56.56787109 28.95507812 C-57.24849609 29.80070312 -57.92912109 30.64632813 -58.63037109 31.51757812 C-59.29037109 31.51757812 -59.95037109 31.51757812 -60.63037109 31.51757812 C-59.42655661 29.02396242 -58.17608388 26.8361473 -56.63037109 24.51757812 C-55.97037109 24.51757812 -55.31037109 24.51757812 -54.63037109 24.51757812 C-54.63037109 23.85757812 -54.63037109 23.19757812 -54.63037109 22.51757812 C-53.97037109 22.18757813 -53.31037109 21.85757812 -52.63037109 21.51757812 C-52.36482422 20.75574219 -52.09927734 19.99390625 -51.82568359 19.20898438 C-48.62081278 11.99278833 -38.65609757 7.58340154 -31.63037109 4.51757812 C-30.94674688 4.17843636 -30.26312267 3.83929459 -29.55878258 3.48987579 C-20.03299818 -0.69412543 -10.19387066 -0.04469035 0 0 Z " fill="#F68B32" transform="translate(112.63037109375,0.482421875)"/>
<path d="M0 0 C3.89857803 3.09197568 4.96519067 6.26092982 6.2890625 10.87890625 C6.98415639 13.2595467 6.98415639 13.2595467 9 16 C8.70459694 17.3422466 8.36018595 18.6736686 8 20 C7.91426092 22.73975928 7.88248791 25.45280211 7.89993286 28.19200134 C7.90119513 29.02493589 7.90245741 29.85787045 7.90375793 30.71604544 C7.9091418 33.51116967 7.9216672 36.30621717 7.93408203 39.10131836 C7.93927453 41.10362127 7.94398281 43.10592548 7.94824219 45.10823059 C7.95818768 49.42218648 7.97103896 53.7361207 7.98596573 58.05006218 C8.00900644 64.86934964 8.02232564 71.68863411 8.03366089 78.50794983 C8.0671148 97.90011321 8.1087661 117.29223348 8.17138672 136.68432617 C8.20588447 147.39271687 8.2297098 158.10107568 8.24159515 168.80951601 C8.2483737 174.47762057 8.260861 180.14558986 8.28662491 185.8136425 C8.31084875 191.14304222 8.32127005 196.47228759 8.32102966 201.80174065 C8.32345498 203.75891464 8.33104891 205.71608999 8.34415817 207.67322159 C8.36129481 210.34268255 8.35997712 213.01152023 8.35403442 215.68101501 C8.36345507 216.45747578 8.37287571 217.23393655 8.38258183 218.03392643 C8.34899299 222.53694615 7.81650894 225.43987831 5 229 C1.5647952 231.29013653 0.014669 231.17842973 -4 231 C-4 230.34 -4 229.68 -4 229 C-1.03 228.01 1.94 227.02 5 226 C5.07004093 199.4880765 5.12296408 172.97616684 5.15543652 146.4641695 C5.17091391 134.15454836 5.19202014 121.84498466 5.22631836 109.53540039 C5.25619395 98.80798832 5.27556865 88.08061784 5.28226548 77.35316533 C5.28618085 71.67159736 5.29540071 65.99014841 5.31719017 60.30861855 C5.33752619 54.96284558 5.34383961 49.61724085 5.33932304 44.27143288 C5.34014953 42.30781643 5.34613228 40.34419446 5.35761642 38.38061142 C5.37251534 35.70216709 5.3689631 33.02436019 5.36076355 30.34590149 C5.36950207 29.56671224 5.3782406 28.787523 5.38724393 27.98472196 C5.34948159 23.42927838 4.64505835 20.7016134 2 17 C1.33984375 14.6484375 1.33984375 14.6484375 0.9375 12.375 C0.35804934 9.14111345 -0.10222047 7.84666929 -2 5 C-2 3.68 -2 2.36 -2 1 C-1.34 0.67 -0.68 0.34 0 0 Z " fill="#F2812C" transform="translate(459,69)"/>
<path d="M0 0 C0.75414185 -0.00428513 1.50828369 -0.00857025 2.28527832 -0.01298523 C3.87197876 -0.01870128 5.4587054 -0.019249 7.04541016 -0.01489258 C9.46172006 -0.01172796 11.87680944 -0.03524035 14.29296875 -0.06054688 C15.8411443 -0.06281983 17.38932312 -0.06352338 18.9375 -0.0625 C19.65329224 -0.07170975 20.36908447 -0.08091949 21.10656738 -0.09040833 C25.78041776 -0.04765295 29.01362795 0.80008195 32.96875 3.30078125 C33.84375 5.48828125 33.84375 5.48828125 33.96875 7.30078125 C26.21875 7.42578125 26.21875 7.42578125 23.96875 6.30078125 C23.96875 5.64078125 23.96875 4.98078125 23.96875 4.30078125 C19.76054855 4.21335324 15.55258224 4.16024484 11.34375 4.11328125 C10.15394531 4.08814453 8.96414063 4.06300781 7.73828125 4.03710938 C1.63243242 3.98594304 -2.70900911 3.99236124 -8.03125 7.30078125 C-10.48046875 7.77734375 -10.48046875 7.77734375 -12.71875 7.92578125 C-15.46035319 8.12465402 -17.38193008 8.41767461 -20.03125 9.30078125 C-20.03125 9.96078125 -20.03125 10.62078125 -20.03125 11.30078125 C-20.815 11.48640625 -21.59875 11.67203125 -22.40625 11.86328125 C-26.76426584 13.59145994 -30.11097942 16.056944 -33.859375 18.83984375 C-36.03125 20.30078125 -36.03125 20.30078125 -38.03125 20.30078125 C-38.03125 20.96078125 -38.03125 21.62078125 -38.03125 22.30078125 C-43.44301471 26.30078125 -43.44301471 26.30078125 -46.03125 26.30078125 C-46.03125 26.96078125 -46.03125 27.62078125 -46.03125 28.30078125 C-47.35125 28.63078125 -48.67125 28.96078125 -50.03125 29.30078125 C-50.093125 29.87828125 -50.155 30.45578125 -50.21875 31.05078125 C-51.36509174 34.22526608 -53.29081842 35.429267 -56.03125 37.30078125 C-56.69125 37.30078125 -57.35125 37.30078125 -58.03125 37.30078125 C-58.03125 37.96078125 -58.03125 38.62078125 -58.03125 39.30078125 C-63.50744048 44.30078125 -63.50744048 44.30078125 -66.03125 44.30078125 C-65.03125 41.30078125 -65.03125 41.30078125 -61.96875 38.80078125 C-60.999375 37.97578125 -60.03 37.15078125 -59.03125 36.30078125 C-59.03125 35.31078125 -59.03125 34.32078125 -59.03125 33.30078125 C-58.391875 33.03265625 -57.7525 32.76453125 -57.09375 32.48828125 C-54.69993314 31.41410373 -54.69993314 31.41410373 -54.03125 28.30078125 C-51.90095451 26.43677269 -49.77756357 24.70087768 -47.53125 22.98828125 C-46.89993164 22.50061279 -46.26861328 22.01294434 -45.61816406 21.51049805 C-32.29508661 11.30078125 -32.29508661 11.30078125 -29.03125 11.30078125 C-29.03125 10.64078125 -29.03125 9.98078125 -29.03125 9.30078125 C-28.103125 8.84703125 -27.175 8.39328125 -26.21875 7.92578125 C-22.99203611 6.35861795 -22.99203611 6.35861795 -20.03125 4.30078125 C-18.04488702 3.59451886 -16.04276741 2.93184554 -14.03125 2.30078125 C-13.14115234 1.95635986 -12.25105469 1.61193848 -11.33398438 1.25708008 C-7.50719692 0.14904294 -3.94739083 -0.00502615 0 0 Z " fill="#F68926" transform="translate(380.03125,27.69921875)"/>
<path d="M0 0 C4.0081803 3.67416528 6.52591615 7.14346504 9 12 C9 12.66 9 13.32 9 14 C9.598125 14.04125 10.19625 14.0825 10.8125 14.125 C13 15 13 15 14.5625 17.5859375 C20.81353747 32.43215149 20.0354977 55.1384255 14.17089844 70.11767578 C12.33992729 74.20607455 10.24347044 78.12156205 8 82 C7.01 81.67 6.02 81.34 5 81 C4.5359375 82.175625 4.5359375 82.175625 4.0625 83.375 C3 86 3 86 2 88 C1.34 88 0.68 88 0 88 C0.58840238 83.97561827 1.88843422 81.12193867 3.9375 77.625 C5.77145405 74.39374763 7.32035616 71.49308293 8.1875 67.875 C8.455625 66.92625 8.72375 65.9775 9 65 C10.485 64.505 10.485 64.505 12 64 C11.93106964 58.10969143 11.84307603 52.22008908 11.73754883 46.33032227 C11.70433273 44.32747236 11.67629048 42.3245296 11.65356445 40.3215332 C11.61995766 37.43921406 11.56763852 34.55774332 11.51171875 31.67578125 C11.50532883 30.78288895 11.4989389 29.88999664 11.49235535 28.970047 C11.37825497 24.12514956 11.03150588 20.99061825 8 17 C7.25244942 15.63490764 6.52154222 14.26048481 5.8125 12.875 C5.29623047 11.88113281 5.29623047 11.88113281 4.76953125 10.8671875 C4 9 4 9 4 6 C3.34 6 2.68 6 2 6 C0 3 0 3 0 0 Z " fill="#F27F28" transform="translate(422,333)"/>
<path d="M0 0 C0.66 0 1.32 0 2 0 C1.67 65.34 1.34 130.68 1 198 C0.67 198 0.34 198 0 198 C-0.7349465 192.2379518 -1.14536791 186.59412674 -1.12698364 180.78723145 C-1.12854363 180.01253934 -1.13010362 179.23784724 -1.13171089 178.43967962 C-1.1356652 175.87187581 -1.13255314 173.30413226 -1.12939453 170.73632812 C-1.13075096 168.88442958 -1.13253225 167.03253131 -1.13470459 165.18063354 C-1.13924765 160.17298783 -1.13750293 155.16536281 -1.1343255 150.15771675 C-1.13178877 144.91581289 -1.13414282 139.67391077 -1.13571167 134.43200684 C-1.13752824 125.63923831 -1.13513915 116.84647819 -1.13037109 108.05371094 C-1.12491592 97.87601313 -1.12670227 87.69833532 -1.1321975 77.52063799 C-1.13672711 68.78250726 -1.13738034 60.04438257 -1.13475883 51.30625105 C-1.13319695 46.08665609 -1.13300014 40.86707056 -1.13629532 35.6474762 C-1.13917227 30.74895407 -1.13720164 25.85045793 -1.13140106 20.95193863 C-1.13007309 19.14951241 -1.1304682 17.34708403 -1.13266373 15.54465866 C-1.13537345 13.09537553 -1.13199649 10.64617707 -1.12698364 8.19689941 C-1.13032973 7.11322987 -1.13032973 7.11322987 -1.13374341 6.00766802 C-1.11415077 1.11415077 -1.11415077 1.11415077 0 0 Z " fill="#F59449" transform="translate(4,160)"/>
<path d="M0 0 C0.99 0 1.98 0 3 0 C3.60414968 25.47497828 -7.92981598 38.83729634 -25.01171875 56.8515625 C-29.54763299 61.58981806 -34.13448854 66.27682428 -38.75 70.9375 C-39.53689209 71.73744385 -40.32378418 72.5373877 -41.13452148 73.36157227 C-41.86872314 74.09690186 -42.6029248 74.83223145 -43.359375 75.58984375 C-44.01389648 76.24847412 -44.66841797 76.90710449 -45.34277344 77.58569336 C-47 79 -47 79 -49 79 C-49.33 79.99 -49.66 80.98 -50 82 C-51.49609375 83.5078125 -51.49609375 83.5078125 -53.4375 85.125 C-57.57340176 88.62861462 -61.59569316 92.23970153 -65.60546875 95.88671875 C-68.00988609 98.00872492 -70.48011097 100.01720988 -73 102 C-73.66 101.34 -74.32 100.68 -75 100 C-74.57178955 99.63237549 -74.1435791 99.26475098 -73.70239258 98.88598633 C-71.73730869 97.19688991 -69.77489303 95.50472171 -67.8125 93.8125 C-67.13896484 93.23435547 -66.46542969 92.65621094 -65.77148438 92.06054688 C-62.78807995 89.48463183 -59.86827292 86.91812476 -57.13671875 84.07421875 C-55 82 -55 82 -53 82 C-53 81.34 -53 80.68 -53 80 C-51.59936523 78.6184082 -51.59936523 78.6184082 -49.62109375 76.98828125 C-44.50875816 72.63992263 -39.79506405 67.94199099 -35.0625 63.1875 C-34.20076172 62.32962891 -33.33902344 61.47175781 -32.45117188 60.58789062 C-31.63326172 59.76869141 -30.81535156 58.94949219 -29.97265625 58.10546875 C-28.86289429 56.99401489 -28.86289429 56.99401489 -27.73071289 55.86010742 C-25.93551332 54.1059093 -25.93551332 54.1059093 -25 52 C-24.34 52 -23.68 52 -23 52 C-22.75894531 51.43925781 -22.51789063 50.87851562 -22.26953125 50.30078125 C-20.7382177 47.52556993 -18.85403695 45.49968649 -16.6875 43.1875 C-11.09055414 37.05065583 -7.09000304 32.21072624 -5 24 C-4.04435012 21.97843296 -3.05725253 19.97033426 -2 18 C-1.34 18 -0.68 18 0 18 C0 12.06 0 6.12 0 0 Z " fill="#F37317" transform="translate(205,306)"/>
<path d="M0 0 C0.66 0.33 1.32 0.66 2 1 C1.61328125 1.70125 1.2265625 2.4025 0.828125 3.125 C-1.61100122 7.56855667 -4.033272 12.00309356 -6.25 16.5625 C-8 20 -8 20 -10 22 C-10.144375 23.093125 -10.28875 24.18625 -10.4375 25.3125 C-11 29 -11 29 -12.50317383 31.3034668 C-14.3619438 34.65204196 -14.42767507 37.01644839 -14.51171875 40.83203125 C-14.54716797 42.12431641 -14.58261719 43.41660156 -14.61914062 44.74804688 C-14.64223681 46.10285934 -14.66501935 47.45767718 -14.6875 48.8125 C-14.72069761 50.18688117 -14.75518953 51.56123171 -14.79101562 52.93554688 C-14.87341264 56.29028234 -14.94259395 59.64475904 -15 63 C-18.48412256 57.77381616 -18.29296757 52.42363413 -18.60546875 46.3125 C-18.77044485 42.53096669 -18.77044485 42.53096669 -20 39 C-18.32316223 26.88484711 -12.34458304 11.17232989 -4 2 C-1.94921875 0.7109375 -1.94921875 0.7109375 0 0 Z " fill="#F3862F" transform="translate(50,33)"/>
<path d="M0 0 C2.62323988 1.43605935 5.18929557 2.95568307 7.75 4.5 C8.43449219 4.90347656 9.11898438 5.30695312 9.82421875 5.72265625 C14.87723214 8.75446429 14.87723214 8.75446429 16 11 C16.99 11.33 17.98 11.66 19 12 C25.82952386 18.27577868 30.76711412 23.934865 33 33 C31.84775972 32.07038578 30.70340824 31.1309875 29.5625 30.1875 C28.92441406 29.66542969 28.28632813 29.14335938 27.62890625 28.60546875 C26 27 26 27 25 24 C23.67151309 22.99357052 22.33849671 21.99307821 21 21 C21 20.34 21 19.68 21 19 C20.46246094 18.7628125 19.92492187 18.525625 19.37109375 18.28125 C15.23340278 16.04539722 11.67515943 12.97711531 7.97265625 10.09375 C5.29577646 8.20832613 3.07354992 7.05000213 0 6 C-3.75 4.625 -3.75 4.625 -7 3 C-7.9375 0.8125 -7.9375 0.8125 -8 -1 C-4.22553444 -2.25815519 -3.53257317 -1.69721392 0 0 Z " fill="#F88E3C" transform="translate(423,36)"/>
<path d="M0 0 C0.66 0 1.32 0 2 0 C0.64494082 2.99892847 -0.89387124 5.180521 -3.15234375 7.56640625 C-3.76400391 8.21673828 -4.37566406 8.86707031 -5.00585938 9.53710938 C-5.64330078 10.20548828 -6.28074219 10.87386719 -6.9375 11.5625 C-7.88786133 12.57086914 -7.88786133 12.57086914 -8.85742188 13.59960938 C-10.56432461 15.40702373 -12.27492363 17.20992612 -14 19 C-14.75132202 19.84872681 -14.75132202 19.84872681 -15.51782227 20.71459961 C-17 22 -17 22 -20 22 C-19.67 22.99 -19.34 23.98 -19 25 C-32.44874715 29.59225513 -32.44874715 29.59225513 -40 29 C-40 28.34 -40 27.68 -40 27 C-41.98 26.67 -43.96 26.34 -46 26 C-46 25.34 -46 24.68 -46 24 C-43.6759436 22.8379718 -42.33080157 22.88939374 -39.74609375 22.89453125 C-26.28184725 22.790792 -26.28184725 22.790792 -15 16 C-14.01 15.67 -13.02 15.34 -12 15 C-12 14.34 -12 13.68 -12 13 C-11.34 13 -10.68 13 -10 13 C-9.773125 12.443125 -9.54625 11.88625 -9.3125 11.3125 C-7.63832737 8.36276727 -5.42167689 6.3626116 -3 4 C-2.443125 3.236875 -1.88625 2.47375 -1.3125 1.6875 C-0.879375 1.130625 -0.44625 0.57375 0 0 Z " fill="#F5862E" transform="translate(184,176)"/>
<path d="M0 0 C3.81772639 1.75939964 6.83454435 4.13980718 10.09765625 6.7578125 C12.03998621 8.27336985 12.03998621 8.27336985 15 8 C17.44880801 9.650156 19.7840139 11.33330844 22.125 13.125 C23.47395415 14.14105948 24.82421081 15.15539208 26.17578125 16.16796875 C26.8301416 16.6582959 27.48450195 17.14862305 28.15869141 17.65380859 C31.12630719 19.82344973 34.22302419 21.77551375 37.36328125 23.68359375 C39.31115849 25.25026351 39.98941935 26.73865587 41 29 C42.5412312 30.70921589 42.5412312 30.70921589 44 32 C39.23993308 31.70249582 36.51910771 29.31980382 32.9140625 26.484375 C30.71382753 24.77807033 28.40799676 23.39410339 26 22 C23.95950578 20.7295036 21.94982535 19.40568804 20 18 C20 17.34 20 16.68 20 16 C18.948125 15.62875 18.948125 15.62875 17.875 15.25 C13.27482704 13.2499248 9.45570926 10.62026685 6 7 C5.01 6.34 4.02 5.68 3 5 C3 4.34 3 3.68 3 3 C2.01 2.67 1.02 2.34 0 2 C0 1.34 0 0.68 0 0 Z " fill="#F5852F" transform="translate(86,213)"/>
<path d="M0 0 C2.64 0.33 5.28 0.66 8 1 C8 0.67 8 0.34 8 0 C16.91 0 25.82 0 35 0 C34.01 0.66 33.02 1.32 32 2 C31.67 2.99 31.34 3.98 31 5 C27.45030954 6.8781431 24.41736833 7.27214113 20.4375 7.25 C19.50808594 7.25515625 18.57867187 7.2603125 17.62109375 7.265625 C14.89799436 6.98966262 13.3984595 6.24008527 11 5 C8.66753401 4.72137778 6.37014961 4.62482274 4.0234375 4.5390625 C2 4 2 4 0.7265625 1.9609375 C0.48679688 1.31382812 0.24703125 0.66671875 0 0 Z " fill="#F58830" transform="translate(131,246)"/>
<path d="M0 0 C0.66 0 1.32 0 2 0 C0.52640603 3.33258945 -1.37097996 5.74389184 -3.8125 8.4375 C-4.87984375 9.61505859 -4.87984375 9.61505859 -5.96875 10.81640625 C-8.25770135 13.27702895 -10.58965932 15.6585262 -13 18 C-13.391875 18.53496094 -13.78375 19.06992187 -14.1875 19.62109375 C-17.04274746 21.7932971 -19.67698221 21.28411976 -23.1875 21.1875 C-25.09595703 21.14689453 -25.09595703 21.14689453 -27.04296875 21.10546875 C-28.50669922 21.05326172 -28.50669922 21.05326172 -30 21 C-29.98428955 21.72590332 -29.9685791 22.45180664 -29.95239258 23.19970703 C-29.88979645 26.50805788 -29.85093088 29.81628381 -29.8125 33.125 C-29.78736328 34.26710938 -29.76222656 35.40921875 -29.73632812 36.5859375 C-29.64506091 47.0512447 -29.64506091 47.0512447 -33 52 C-33.33 52 -33.66 52 -34 52 C-33.76796875 50.14375 -33.76796875 50.14375 -33.53125 48.25 C-32.77564112 41.46016248 -32.6211548 34.64810564 -32.39453125 27.82421875 C-32.35714844 26.83035156 -32.31976563 25.83648437 -32.28125 24.8125 C-32.25095703 23.91144531 -32.22066406 23.01039063 -32.18945312 22.08203125 C-32 20 -32 20 -31 19 C-29.14650898 18.91992919 -27.29207929 18.86124364 -25.4375 18.8125 C-18.93246839 18.30441469 -15.61842565 16.46543432 -11 12 C-10.26394531 11.30519531 -9.52789062 10.61039062 -8.76953125 9.89453125 C-4.90972617 6.30940356 -4.90972617 6.30940356 -2 2 C-1.34 2 -0.68 2 0 2 C0 1.34 0 0.68 0 0 Z " fill="#F58932" transform="translate(286,274)"/>
<path d="M0 0 C2.375 0.4375 2.375 0.4375 5 2 C5.73071196 4.21006747 6.08507428 6.38501159 6.46875 8.6796875 C7.2257449 11.98597406 9.00699391 14.2997982 11 17 C11.33 17.99 11.66 18.98 12 20 C14.00016466 21.20882096 14.00016466 21.20882096 16 22 C16 22.66 16 23.32 16 24 C16.66 24.33 17.32 24.66 18 25 C18 25.66 18 26.32 18 27 C19.45315843 28.54542246 20.96251794 30.03844298 22.5 31.5 C24.03748206 32.96155702 25.54684157 34.45457754 27 36 C27 36.66 27 37.32 27 38 C24.00306862 37.00102287 22.97290587 36.34869747 21 34 C21 33.34 21 32.68 21 32 C20.34 32 19.68 32 19 32 C19 31.34 19 30.68 19 30 C18.401875 29.731875 17.80375 29.46375 17.1875 29.1875 C15.00152146 28.00082594 13.58667406 26.90400887 12 25 C12 24.34 12 23.68 12 23 C11.1646875 22.690625 11.1646875 22.690625 10.3125 22.375 C7.14315631 20.49052538 4.88477358 18.13892744 3 15 C2.1875 11.125 2.1875 11.125 2 8 C1.34 8 0.68 8 0 8 C0 5.36 0 2.72 0 0 Z " fill="#F7872D" transform="translate(166,249)"/>
<path d="M0 0 C1.98 0.99 1.98 0.99 4 2 C4 2.66 4 3.32 4 4 C4.55429688 4.22558594 5.10859375 4.45117188 5.6796875 4.68359375 C8.68506155 6.38866286 10.72987003 8.57799951 13.125 11.0625 C16.24105765 14.46453483 16.24105765 14.46453483 20 17 C20 17.66 20 18.32 20 19 C20.58523437 19.26554687 21.17046875 19.53109375 21.7734375 19.8046875 C24.06478055 21.03477693 25.71008944 22.37306055 27.625 24.125 C35.33492003 31.00681751 43.46025336 37.18570442 52 43 C51.34 43.66 50.68 44.32 50 45 C47.91598726 43.56347677 45.83277356 42.12581793 43.75 40.6875 C42.87021484 40.08131836 42.87021484 40.08131836 41.97265625 39.46289062 C40.31092621 38.3146165 38.65530639 37.15751498 37 36 C36.20078125 35.44957031 35.4015625 34.89914063 34.578125 34.33203125 C34.05734375 33.89246094 33.5365625 33.45289063 33 33 C33 32.34 33 31.68 33 31 C32.48050781 30.78859375 31.96101563 30.5771875 31.42578125 30.359375 C27.96556883 28.42031876 25.16146398 25.85818231 22.1875 23.25 C21.59646484 22.73695313 21.00542969 22.22390625 20.39648438 21.6953125 C19.20079231 20.65739441 18.00694609 19.61734612 16.81494141 18.57519531 C14.41547906 16.49269181 11.98350346 14.44929242 9.54711914 12.41015625 C7.95007535 10.95449506 6.60988808 9.42743951 5.25 7.75 C3.11220714 4.86340001 3.11220714 4.86340001 0 3 C0 2.01 0 1.02 0 0 Z " fill="#F57211" transform="translate(72,152)"/>
<path d="M0 0 C0.66 0.33 1.32 0.66 2 1 C2.72392869 5.34357212 2.9186837 7.70916433 0.3125 11.37109375 C-1.24416978 13.06018856 -2.82831193 14.724223 -4.43359375 16.3671875 C-6.95472963 18.95355825 -9.23134598 21.62869027 -11.5 24.4375 C-12.23347656 25.33984375 -12.96695312 26.2421875 -13.72265625 27.171875 C-15.32068723 29.15639375 -16.91129363 31.14563408 -18.49609375 33.140625 C-19.70458984 34.64882812 -19.70458984 34.64882812 -20.9375 36.1875 C-21.66839844 37.10917969 -22.39929688 38.03085937 -23.15234375 38.98046875 C-23.76207031 39.64691406 -24.37179687 40.31335937 -25 41 C-25.66 41 -26.32 41 -27 41 C-27.66 42.32 -28.32 43.64 -29 45 C-29.66 45 -30.32 45 -31 45 C-31.33 46.32 -31.66 47.64 -32 49 C-32.33 49 -32.66 49 -33 49 C-33.25 46.75 -33.25 46.75 -33 44 C-31.4375 42.1875 -31.4375 42.1875 -29 40 C-27.92377011 38.80387922 -26.86285744 37.59390317 -25.8125 36.375 C-23.07379623 33.21991942 -20.30016433 30.10069304 -17.5 27 C-15.99957711 25.33371403 -14.49955926 23.66706322 -13 22 C-12.35546875 21.28457031 -11.7109375 20.56914062 -11.046875 19.83203125 C-2.98822979 11.11365936 -2.98822979 11.11365936 0 0 Z " fill="#F27414" transform="translate(308,10)"/>
<path d="M0 0 C0.495 1.485 0.495 1.485 1 3 C-6.75 3.125 -6.75 3.125 -9 2 C-9 1.34 -9 0.68 -9 0 C-13.20820145 -0.08742801 -17.41616776 -0.14053641 -21.625 -0.1875 C-22.81480469 -0.21263672 -24.00460937 -0.23777344 -25.23046875 -0.26367188 C-31.33631758 -0.31483821 -35.67775911 -0.30842001 -41 3 C-43.44921875 3.4765625 -43.44921875 3.4765625 -45.6875 3.625 C-48.42910319 3.82387277 -50.35068008 4.11689336 -53 5 C-53 5.66 -53 6.32 -53 7 C-54.65 7 -56.3 7 -58 7 C-55.67894915 3.24697879 -53.58876944 2.16677565 -49.4375 0.8125 C-48.46683594 0.48894531 -47.49617188 0.16539063 -46.49609375 -0.16796875 C-45.26052734 -0.57982422 -45.26052734 -0.57982422 -44 -1 C-43.34 -1.33 -42.68 -1.66 -42 -2 C-28.53901333 -3.77579792 -13.06568635 -4.35522878 0 0 Z " fill="#F58C36" transform="translate(413,32)"/>
<path d="M0 0 C2.91517292 1.07401108 4.77810176 1.77810176 7 4 C8.02222656 4.40347656 9.04445313 4.80695313 10.09765625 5.22265625 C14.8167713 7.17172295 18.51346829 10.22431758 22.4375 13.4375 C23.16904297 14.01048828 23.90058594 14.58347656 24.65429688 15.17382812 C25.34458984 15.73392578 26.03488281 16.29402344 26.74609375 16.87109375 C27.37185303 17.37568115 27.9976123 17.88026855 28.64233398 18.40014648 C30 20 30 20 30 24 C26.00321317 22.62253597 23.22955383 20.77229751 20 18.0625 C16.78524967 15.37516965 13.59385788 13.1443352 10 11 C8.31237149 9.3545622 6.6459651 7.68711423 5 6 C3.6078125 4.9171875 3.6078125 4.9171875 2.1875 3.8125 C1.465625 3.214375 0.74375 2.61625 0 2 C0 1.34 0 0.68 0 0 Z " fill="#F6862D" transform="translate(51,185)"/>
<path d="M0 0 C0.99 0.33 1.98 0.66 3 1 C3.0271045 4.04172719 3.04688964 7.08320997 3.0625 10.125 C3.07087891 10.9809375 3.07925781 11.836875 3.08789062 12.71875 C3.10538306 17.26678411 2.93192358 21.52383164 2 26 C0.35 26 -1.3 26 -3 26 C-2.88995839 22.41604315 -2.75936703 18.83312083 -2.625 15.25 C-2.5940625 14.23421875 -2.563125 13.2184375 -2.53125 12.171875 C-2.49257812 11.1921875 -2.45390625 10.2125 -2.4140625 9.203125 C-2.3826416 8.30239258 -2.3512207 7.40166016 -2.31884766 6.47363281 C-1.98862744 3.91177125 -1.29048327 2.21872563 0 0 Z " fill="#F38B3A" transform="translate(215,135)"/>
<path d="M0 0 C0.99 0.33 1.98 0.66 3 1 C1.05452565 3.5939658 -0.75267714 5.80615235 -3.3125 7.8125 C-6.42544106 10.34628923 -8.81287112 13.19714374 -11.3515625 16.29296875 C-13 18 -13 18 -16 19 C-16.34948557 20.32919101 -16.68016237 21.66336513 -17 23 C-18.5234375 25 -18.5234375 25 -20.375 27 C-22.24450965 29.03657222 -23.99705837 30.99586736 -25.6015625 33.25 C-26.29378906 34.11625 -26.29378906 34.11625 -27 35 C-27.66 35 -28.32 35 -29 35 C-29.33 36.32 -29.66 37.64 -30 39 C-30.99 39 -31.98 39 -33 39 C-31.34103962 35.07537373 -28.69249367 32.06491859 -25.9375 28.875 C-25.44507813 28.29951416 -24.95265625 27.72402832 -24.4453125 27.13110352 C-20.04752897 22.0110096 -15.55562016 16.9801039 -11 12 C-10.51901855 11.47390137 -10.03803711 10.94780273 -9.54248047 10.40576172 C-6.36638507 6.93281623 -3.18498811 3.46479081 0 0 Z " fill="#F47819" transform="translate(307,74)"/>
<path d="M0 0 C2 2 2 2 2 6 C2.66 6 3.32 6 4 6 C5.46463311 8.92926622 5.13182708 11.55256781 5.125 14.8125 C5.12757813 16.03582031 5.13015625 17.25914062 5.1328125 18.51953125 C5.01945473 21.49017156 4.69145246 24.1189481 4 27 C2.68 27.33 1.36 27.66 0 28 C0 18.76 0 9.52 0 0 Z " fill="#F3883C" transform="translate(435,362)"/>
<path d="M0 0 C0.33 0.66 0.66 1.32 1 2 C2.86205078 1.96519531 2.86205078 1.96519531 4.76171875 1.9296875 C6.4036398 1.91092269 8.04556738 1.89272325 9.6875 1.875 C10.50412109 1.85824219 11.32074219 1.84148437 12.16210938 1.82421875 C16.57092929 1.7885198 19.98731576 1.92419186 24 4 C24 4.66 24 5.32 24 6 C23.13375 5.835 22.2675 5.67 21.375 5.5 C15.32047842 4.62434605 9.09909369 4.72202522 3 5 C2.67 5.33 2.34 5.66 2 6 C0.60652455 6.13201346 -0.79018452 6.23058033 -2.1875 6.3125 C-6.72805743 6.74562154 -9.31193596 8.2778575 -13 11 C-13.99 11 -14.98 11 -16 11 C-14.99138318 8.39075213 -14.33501908 7.20251153 -11.90625 5.734375 C-11.1121875 5.40953125 -10.318125 5.0846875 -9.5 4.75 C-8.7059375 4.41484375 -7.911875 4.0796875 -7.09375 3.734375 C-5 3 -5 3 -3 3 C-3 2.34 -3 1.68 -3 1 C-2.01 0.67 -1.02 0.34 0 0 Z " fill="#F58D39" transform="translate(315,252)"/>
<path d="M0 0 C-0.76143669 1.94121211 -1.53451357 3.87786117 -2.3125 5.8125 C-2.74175781 6.89144531 -3.17101562 7.97039062 -3.61328125 9.08203125 C-4.85336541 11.69144777 -5.81531451 13.17408984 -8 15 C-8.66 14.67 -9.32 14.34 -10 14 C-10.4640625 15.175625 -10.4640625 15.175625 -10.9375 16.375 C-12 19 -12 19 -13 21 C-13.66 21 -14.32 21 -15 21 C-14.25506335 15.85993708 -11.96314541 12.14846042 -9.375 7.71875 C-8.0418592 5.08276705 -7.56571513 2.86898389 -7 0 C-4.3333581 -1.33332095 -2.83319697 -0.67102033 0 0 Z " fill="#F48734" transform="translate(437,400)"/>
<path d="M0 0 C0.99 0 1.98 0 3 0 C3.52207031 1.00417969 4.04414062 2.00835937 4.58203125 3.04296875 C8.87689151 11.09101299 13.41059032 18.23406109 19.54418945 25.01245117 C23 28.83515206 23 28.83515206 23 31 C23.66 31 24.32 31 25 31 C25.66 32.65 26.32 34.3 27 36 C23.43869816 34.51811601 21.4415828 32.52954306 18.9375 29.625 C18.26589844 28.85414063 17.59429687 28.08328125 16.90234375 27.2890625 C12 21.39014374 12 21.39014374 12 19 C11.34 19 10.68 19 10 19 C8.70425129 16.77312024 7.41332692 14.54366825 6.125 12.3125 C5.76019531 11.68666016 5.39539062 11.06082031 5.01953125 10.41601562 C3.06258803 7.01805058 1.34392261 3.69932381 0 0 Z " fill="#F37111" transform="translate(35,106)"/>
<path d="M0 0 C4.84590538 0.44053685 8.48141867 2.74505877 12 6 C12 6.66 12 7.32 12 8 C12.59329102 8.11931885 13.18658203 8.2386377 13.79785156 8.36157227 C17.3051281 9.37837139 19.91681066 11.71764945 22.75 13.9375 C23.35199219 14.39318359 23.95398438 14.84886719 24.57421875 15.31835938 C26.09145961 16.49327492 27.55116855 17.74169407 29 19 C29 19.66 29 20.32 29 21 C29.556875 21.2475 30.11375 21.495 30.6875 21.75 C33.42410913 23.22924818 35.67650869 24.93467439 38 27 C38 27.66 38 28.32 38 29 C34.54963373 27.47004544 31.9429646 25.4256544 29.0625 23 C24.82651381 19.48515355 20.54809816 16.0465518 16.1875 12.6875 C15.14980469 11.88699219 14.11210937 11.08648437 13.04296875 10.26171875 C10.91875215 8.68287226 8.83877332 7.24374831 6.61328125 5.83203125 C5.75089844 5.22746094 4.88851563 4.62289062 4 4 C4 3.34 4 2.68 4 2 C2.68 1.67 1.36 1.34 0 1 C0 0.67 0 0.34 0 0 Z " fill="#F57414" transform="translate(351,220)"/>
<path d="M0 0 C0.55945313 0.28617188 1.11890625 0.57234375 1.6953125 0.8671875 C3.23262379 1.62281508 4.79110105 2.3368054 6.3671875 3.0078125 C11.98482908 5.51037557 15.16169504 7.87847646 18.55078125 12.99609375 C20.8782803 16.21444149 23.88730014 18.56877881 27 21 C22.9010695 21 21.51292828 19.32448788 18.3125 16.8125 C14.75912057 14.04636069 11.22071693 11.43897279 7.3125 9.1875 C3.60989664 6.74238457 3.94625747 6.79272305 3 3 C2.01 2.67 1.02 2.34 0 2 C0 1.34 0 0.68 0 0 Z " fill="#F68735" transform="translate(23,162)"/>
<path d="M0 0 C0.66 0 1.32 0 2 0 C1.45912682 3.78611227 -0.11722332 5.55400767 -3 8 C-3.66 8 -4.32 8 -5 8 C-5.04125 8.556875 -5.0825 9.11375 -5.125 9.6875 C-6.20219009 12.53435953 -7.89315284 13.68312558 -10.25390625 15.51171875 C-12.24770792 17.2111336 -13.86889704 19.06501205 -15.5625 21.0625 C-18.15524658 24.09023276 -20.65735373 26.77156916 -24 29 C-24.99 29 -25.98 29 -27 29 C-27 28.34 -27 27.68 -27 27 C-26.01 27 -25.02 27 -24 27 C-23.67 26.01 -23.34 25.02 -23 24 C-21.46875 22.52734375 -21.46875 22.52734375 -19.5 20.9375 C-13.15980353 15.56310407 -7.86618038 9.24973992 -2.5625 2.875 C-1.716875 1.92625 -0.87125 0.9775 0 0 Z " fill="#F57216" transform="translate(191,171)"/>
<path d="M0 0 C3.56720996 2.67540747 6.41126424 5.35659412 9 9 C9 9.66 9 10.32 9 11 C9.99 11.33 10.98 11.66 12 12 C14.25 14.375 14.25 14.375 16 17 C15.67 17.99 15.34 18.98 15 20 C11.18063472 18.44396229 8.73955562 16.04395069 6 13 C6 12.34 6 11.68 6 11 C5.34 11 4.68 11 4 11 C2.67578125 9.35546875 2.67578125 9.35546875 1.3125 7.1875 C0.85488281 6.47980469 0.39726562 5.77210938 -0.07421875 5.04296875 C-1 3 -1 3 0 0 Z " fill="#F48A1D" transform="translate(393,296)"/>
<path d="M0 0 C0.66 0 1.32 0 2 0 C-1.14569954 6.81568233 -5.63750452 11.90355277 -10.6796875 17.38671875 C-13.51570049 20.58081419 -16.06852452 23.93760561 -18.58984375 27.3828125 C-19.28787109 28.18332031 -19.28787109 28.18332031 -20 29 C-20.66 29 -21.32 29 -22 29 C-20.11627591 24.71880889 -17.32293489 20.32293489 -14 17 C-14 16.01 -14 15.02 -14 14 C-13.401875 13.938125 -12.80375 13.87625 -12.1875 13.8125 C-9.10421892 12.66728131 -8.60559689 10.82585053 -7 8 C-5.35353315 6.31337542 -3.68816933 4.64488294 -2 3 C-1.34 2.01 -0.68 1.02 0 0 Z " fill="#F4862E" transform="translate(229,355)"/>
<path d="M0 0 C7.41710945 4.02643084 15.52676936 11.68095148 18 20 C18.33732896 21.33232806 18.67129598 22.66551787 19 24 C17.84775972 23.07038578 16.70340824 22.1309875 15.5625 21.1875 C14.92441406 20.66542969 14.28632813 20.14335938 13.62890625 19.60546875 C12 18 12 18 11 15 C9.67151309 13.99357052 8.33849671 12.99307821 7 12 C7 11.34 7 10.68 7 10 C6.34 9.67 5.68 9.34 5 9 C5 8.34 5 7.68 5 7 C3.04072937 5.2856382 1.04119788 3.61594832 -1 2 C-0.67 1.34 -0.34 0.68 0 0 Z " fill="#F88726" transform="translate(437,45)"/>
<path d="M0 0 C0.99 0 1.98 0 3 0 C3 0.66 3 1.32 3 2 C3.86625 1.4740625 3.86625 1.4740625 4.75 0.9375 C7.35801776 -0.14917407 8.39417629 0.06934867 11 1 C10.67 1.66 10.34 2.32 10 3 C8.329375 3.2165625 8.329375 3.2165625 6.625 3.4375 C2.75495397 4.03802438 2.49241947 4.39428874 0 7 C-2.6875 7.1875 -2.6875 7.1875 -5 7 C-5.20625 7.598125 -5.4125 8.19625 -5.625 8.8125 C-7.51957494 11.8265965 -9.79754498 12.56216305 -13 14 C-13.99 14.66 -14.98 15.32 -16 16 C-16.99 15.67 -17.98 15.34 -19 15 C-12.73600373 9.77226978 -6.26319712 5.70626694 1 2 C0.67 1.34 0.34 0.68 0 0 Z " fill="#F5913E" transform="translate(81,5)"/>
<path d="M0 0 C3.84262321 0.23288626 5.58948461 1.40770296 8.25 4 C11.66267603 7.09903841 14.40849268 7.9578517 18.984375 8.16796875 C21.13981151 8.10410812 21.13981151 8.10410812 23.4375 6.875 C25.24615667 4.704612 26.13172876 2.67716964 27 0 C27.66 0.66 28.32 1.32 29 2 C28.34 3.98 27.68 5.96 27 8 C26.01 8 25.02 8 24 8 C24 8.66 24 9.32 24 10 C20.41476497 11.79261752 16.89883884 11.7302961 13 11 C7.7287398 8.23524681 3.3792591 4.92717778 0 0 Z " fill="#F2771B" transform="translate(440,291)"/>
<path d="M0 0 C-0.99 0.66 -1.98 1.32 -3 2 C-3 2.66 -3 3.32 -3 4 C-6.99795892 4.95619733 -10.70803922 5.1039592 -14.8125 5.0625 C-15.97394531 5.05347656 -17.13539063 5.04445312 -18.33203125 5.03515625 C-19.21246094 5.02355469 -20.09289062 5.01195312 -21 5 C-21.33 4.34 -21.66 3.68 -22 3 C-21.01 3 -20.02 3 -19 3 C-19 2.34 -19 1.68 -19 1 C-12.62694402 0.25492456 -6.41688675 -0.10349817 0 0 Z " fill="#F5913D" transform="translate(166,246)"/>
<path d="M0 0 C2.475 0.99 2.475 0.99 5 2 C6.125 9.625 6.125 9.625 5 13 C6.62126675 15.03697617 8.28859531 17.03814584 10 19 C10 19.66 10 20.32 10 21 C10.66 21 11.32 21 12 21 C12 21.66 12 22.32 12 23 C7.93078733 21.4928842 5.20139944 18.66624042 3 15 C2.1875 11.125 2.1875 11.125 2 8 C1.34 8 0.68 8 0 8 C0 5.36 0 2.72 0 0 Z " fill="#F38631" transform="translate(166,249)"/>
<path d="M0 0 C4.38462134 0.50109958 6.8000997 1.98295115 10 5 C10 5.66 10 6.32 10 7 C10.54398437 7.23847656 11.08796875 7.47695313 11.6484375 7.72265625 C14.60085583 9.3263785 17.02862034 11.30650914 19.625 13.4375 C20.58664062 14.21996094 21.54828125 15.00242187 22.5390625 15.80859375 C25 18 25 18 27 21 C26.01 21 25.02 21 24 21 C24 20.34 24 19.68 24 19 C23.484375 18.773125 22.96875 18.54625 22.4375 18.3125 C19.10452995 16.51782382 15.85296329 14.50034985 13 12 C13 11.34 13 10.68 13 10 C12.01 10 11.02 10 10 10 C7.625 7.8125 7.625 7.8125 5 5 C4.071875 4.071875 3.14375 3.14375 2.1875 2.1875 C1.465625 1.465625 0.74375 0.74375 0 0 Z " fill="#F56E14" transform="translate(400,258)"/>
<path d="M0 0 C0.91974609 -0.01224609 1.83949219 -0.02449219 2.78710938 -0.03710938 C3.67076172 -0.03904297 4.55441406 -0.04097656 5.46484375 -0.04296875 C6.27429443 -0.04707764 7.08374512 -0.05118652 7.91772461 -0.05541992 C10.0625 0.1875 10.0625 0.1875 13.0625 2.1875 C10.50526771 3.46611615 8.69512898 3.30086609 5.8359375 3.28515625 C4.8046875 3.28193359 3.7734375 3.27871094 2.7109375 3.27539062 C1.09058594 3.26282227 1.09058594 3.26282227 -0.5625 3.25 C-2.19445312 3.24323242 -2.19445312 3.24323242 -3.859375 3.23632812 C-6.55213789 3.22451776 -9.24479188 3.20804778 -11.9375 3.1875 C-11.9375 2.5275 -11.9375 1.8675 -11.9375 1.1875 C-8.29852049 -0.63198976 -4.00590712 0.00279547 0 0 Z " fill="#F38C3C" transform="translate(316.9375,203.8125)"/>
<path d="M0 0 C4.6974283 1.88122428 7.96081677 5.60570792 11.49023438 9.09960938 C14.66046784 12.12482581 16.73696765 13.28327302 21 14 C22.75 17.4375 22.75 17.4375 24 21 C24.33 21.66 24.66 22.32 25 23 C21.41881802 22.05204006 19.56720823 20.69499121 17.3125 17.875 C14.12586037 13.91032368 10.39449296 10.97460443 6.3671875 7.89453125 C4.06115251 6.04894219 1.97437811 4.19729176 0 2 C0 1.34 0 0.68 0 0 Z " fill="#F6892B" transform="translate(365,274)"/>
<path d="M0 0 C0.66 0 1.32 0 2 0 C1.34 1.32 0.68 2.64 0 4 C-0.66 4 -1.32 4 -2 4 C-2.33 5.65 -2.66 7.3 -3 9 C-3.99 9.33 -4.98 9.66 -6 10 C-6.33 11.98 -6.66 13.96 -7 16 C-7.99 16.33 -8.98 16.66 -10 17 C-10.33406575 12.82417812 -10.20564042 10.41128084 -8.3125 6.625 C-6 4 -6 4 -3.25 3.125 C-2.5075 3.08375 -1.765 3.0425 -1 3 C-0.67 2.01 -0.34 1.02 0 0 Z " fill="#F4892E" transform="translate(278,110)"/>
<path d="M0 0 C4.67009539 2.11856597 7.92434964 5.39412006 11.625 8.875 C12.305625 9.50019531 12.98625 10.12539062 13.6875 10.76953125 C14.33976562 11.37925781 14.99203125 11.98898438 15.6640625 12.6171875 C16.25654785 13.17003418 16.8490332 13.72288086 17.45947266 14.29248047 C19.07872791 16.08726197 20.02562693 17.79819336 21 20 C18.5625 19.1875 18.5625 19.1875 16 18 C15.67 17.01 15.34 16.02 15 15 C14.01 14.67 13.02 14.34 12 14 C10.80849812 12.5768172 9.6214138 11.14930957 8.47265625 9.69140625 C6.34761419 7.25070807 3.88533891 5.30350975 1.35546875 3.296875 C0.90816406 2.86890625 0.46085937 2.4409375 0 2 C0 1.34 0 0.68 0 0 Z " fill="#F27511" transform="translate(277,172)"/>
<path d="M0 0 C0.33 0.99 0.66 1.98 1 3 C-4.40577841 7.11868832 -8.08004293 9.88339877 -15 9 C-14.4375 7.1875 -14.4375 7.1875 -13 5 C-9.5625 3.375 -9.5625 3.375 -6 2 C-3 0 -3 0 0 0 Z " fill="#F4802B" transform="translate(123,410)"/>
<path d="M0 0 C2.79872437 2.52788007 4.45773019 4.20411134 5 8 C4.34 8 3.68 8 3 8 C3.7425 9.5778125 3.7425 9.5778125 4.5 11.1875 C5.82779788 14.25452609 6.30715006 16.62134936 6 20 C4.125 19.0625 4.125 19.0625 2 17 C1.30644212 14.72902084 0.87480326 12.4987955 0.4921875 10.15625 C0.07074457 7.72085249 0.07074457 7.72085249 -2 5 C-2 3.68 -2 2.36 -2 1 C-1.34 0.67 -0.68 0.34 0 0 Z " fill="#F58C35" transform="translate(459,69)"/>
<path d="M0 0 C1.32 0.33 2.64 0.66 4 1 C4 1.66 4 2.32 4 3 C4.99 3.33 5.98 3.66 7 4 C9.25 6.3125 9.25 6.3125 11 9 C10.75 11.3125 10.75 11.3125 10 13 C10.66 13 11.32 13 12 13 C11.67 13.99 11.34 14.98 11 16 C9.5 14.625 9.5 14.625 8 13 C8 12.34 8 11.68 8 11 C7.01 10.67 6.02 10.34 5 10 C5 9.01 5 8.02 5 7 C4.01 6.67 3.02 6.34 2 6 C2 5.34 2 4.68 2 4 C1.34 4 0.68 4 0 4 C0 2.68 0 1.36 0 0 Z " fill="#F68727" transform="translate(409,316)"/>
<path d="M0 0 C0.33 0 0.66 0 1 0 C1 8.25 1 16.5 1 25 C-2.64918582 21.35081418 -2.16330663 17.55076997 -2.1875 12.625 C-2.20167969 11.31789062 -2.21585937 10.01078125 -2.23046875 8.6640625 C-2.0164804 5.26201037 -1.48144811 3.03316253 0 0 Z " fill="#F38B36" transform="translate(266,130)"/>
<path d="M0 0 C0.33 0 0.66 0 1 0 C1.3125 2.1875 1.3125 2.1875 1 5 C-0.64632599 6.68676207 -2.31682123 8.35001067 -4 10 C-6.40581753 13.13819406 -8.70615058 16.33848543 -11.01171875 19.55078125 C-11.99591797 20.76314453 -11.99591797 20.76314453 -13 22 C-13.66 22 -14.32 22 -15 22 C-14.67 20.68 -14.34 19.36 -14 18 C-13.34 18 -12.68 18 -12 18 C-12 16.68 -12 15.36 -12 14 C-10.89150628 12.82432485 -9.7686111 11.65861269 -8.57421875 10.5703125 C-5.89342794 7.89617378 -3.72211558 4.81664533 -1.453125 1.79296875 C-0.97359375 1.20128906 -0.4940625 0.60960937 0 0 Z " fill="#F58930" transform="translate(251,326)"/>
<path d="M0 0 C0.66 0.33 1.32 0.66 2 1 C0.6300094 3.97120324 -0.96280365 6.36654562 -3.0390625 8.890625 C-3.61914062 9.59960938 -4.19921875 10.30859375 -4.796875 11.0390625 C-5.40015625 11.76867187 -6.0034375 12.49828125 -6.625 13.25 C-7.23601562 13.99507812 -7.84703125 14.74015625 -8.4765625 15.5078125 C-9.9810076 17.34135497 -11.48889893 19.17194246 -13 21 C-13.57421875 19.11401367 -13.57421875 19.11401367 -14 17 C-12.8125 15.17578125 -12.8125 15.17578125 -11 13.3125 C-7.03915251 9.0806891 -3.50984576 4.60867286 0 0 Z " fill="#F37414" transform="translate(272,58)"/>
<path d="M0 0 C4.0081803 3.67416528 6.52591615 7.14346504 9 12 C9 12.66 9 13.32 9 14 C10.32 14.33 11.64 14.66 13 15 C12.34 16.98 11.68 18.96 11 21 C7.76140913 19.38070456 7.32339087 16.25333589 6 13 C5.4121875 11.88625 5.4121875 11.88625 4.8125 10.75 C4 9 4 9 4 6 C3.34 6 2.68 6 2 6 C0 3 0 3 0 0 Z " fill="#F48B37" transform="translate(422,333)"/>
<path d="M0 0 C3.96064107 1.74268207 7.74436549 4.14674729 11 7 C11 7.66 11 8.32 11 9 C11.53625 9.0825 12.0725 9.165 12.625 9.25 C15.8352431 10.26376098 18.26292392 12.07160549 21 14 C20.67 14.66 20.34 15.32 20 16 C15.68711193 14.52769684 12.28218566 12.23423235 8.6875 9.5 C7.86282227 8.89478516 7.86282227 8.89478516 7.02148438 8.27734375 C5.63992549 7.23731309 4.31443702 6.12366546 3 5 C3 4.34 3 3.68 3 3 C2.01 2.67 1.02 2.34 0 2 C0 1.34 0 0.68 0 0 Z " fill="#F47317" transform="translate(25,401)"/>
<path d="M0 0 C0.66 0 1.32 0 2 0 C2.24234375 0.66386719 2.4846875 1.32773438 2.734375 2.01171875 C5.65282879 10.32231647 5.65282879 10.32231647 12 16 C12 16.66 12 17.32 12 18 C7.71733781 17.26001517 6.07752661 15.38823494 3.39453125 12.12109375 C1.12963857 8.67617295 0.0252037 4.96591956 -1 1 C-0.67 0.67 -0.34 0.34 0 0 Z " fill="#F37412" transform="translate(264,153)"/>
<path d="M0 0 C2.4375 0.75 2.4375 0.75 5 2 C5.33333333 3.33333333 5.66666667 4.66666667 6 6 C7.65438613 6.69658363 9.32254318 7.36096883 11 8 C12.8125 10.125 12.8125 10.125 14 12 C10 12 10 12 8.25 10.3125 C7.13625 9.1678125 7.13625 9.1678125 6 8 C3.39385921 6.23083135 0.70983542 4.60485399 -2 3 C-1.34 2.01 -0.68 1.02 0 0 Z " fill="#F7882D" transform="translate(345,257)"/>
<path d="M0 0 C0.99 0.33 1.98 0.66 3 1 C2.48050781 1.71285156 1.96101562 2.42570312 1.42578125 3.16015625 C-2.40660857 8.42349384 -6.22685795 13.694019 -10 19 C-10.66 18.01 -11.32 17.02 -12 16 C-8.04 10.72 -4.08 5.44 0 0 Z " fill="#F56F13" transform="translate(246,90)"/>
<path d="M0 0 C5.9540148 0 9.9785825 1.83811353 15 4.9375 C15.5880542 5.29779297 16.1761084 5.65808594 16.78198242 6.02929688 C18.23004495 6.95694525 19.62120802 7.97221147 21 9 C21 9.66 21 10.32 21 11 C17.53897119 10.35553257 15.13289311 8.95961146 12.1875 7.0625 C8.13126522 4.55664829 4.64397352 3.00955946 0 2 C0 1.34 0 0.68 0 0 Z " fill="#F47516" transform="translate(329,207)"/>
<path d="M0 0 C0.66 0.33 1.32 0.66 2 1 C-3.98152569 7.20630119 -10.03057472 12.9160231 -17 18 C-17.66 17.67 -18.32 17.34 -19 17 C-17.04709472 15.16056628 -15.08818082 13.32840869 -13.125 11.5 C-12.29162109 10.71302734 -12.29162109 10.71302734 -11.44140625 9.91015625 C-7.2265625 6 -7.2265625 6 -5 6 C-5 5.34 -5 4.68 -5 4 C-4.34 4 -3.68 4 -3 4 C-3 3.34 -3 2.68 -3 2 C-2.01 1.34 -1.02 0.68 0 0 Z " fill="#F4842F" transform="translate(149,387)"/>
<path d="M0 0 C-0.66 1.32 -1.32 2.64 -2 4 C-2.66 4 -3.32 4 -4 4 C-4.1546875 4.9590625 -4.1546875 4.9590625 -4.3125 5.9375 C-4.539375 6.618125 -4.76625 7.29875 -5 8 C-8.28976808 9.09658936 -9.71303767 8.79953138 -13 8 C-12 5 -12 5 -9.78515625 3.61328125 C-8.43744141 2.96939453 -8.43744141 2.96939453 -7.0625 2.3125 C-6.16660156 1.87550781 -5.27070313 1.43851562 -4.34765625 0.98828125 C-2 0 -2 0 0 0 Z " fill="#F68A34" transform="translate(402,441)"/>
<path d="M0 0 C0.33 0.66 0.66 1.32 1 2 C-0.57970345 4.08617326 -2.16358284 6.16894154 -3.75 8.25 C-4.1934375 8.83652344 -4.636875 9.42304688 -5.09375 10.02734375 C-7.5512507 13.24377849 -10.04682748 16.21242594 -13 19 C-13.66 18.67 -14.32 18.34 -15 18 C-14.66226563 17.54109375 -14.32453125 17.0821875 -13.9765625 16.609375 C-10.63691049 12.01807574 -10.63691049 12.01807574 -8 7 C-7.34 7 -6.68 7 -6 7 C-4.42159428 5.44294806 -4.42159428 5.44294806 -2.875 3.5 C-2.33617187 2.8503125 -1.79734375 2.200625 -1.2421875 1.53125 C-0.83226562 1.0259375 -0.42234375 0.520625 0 0 Z " fill="#F48632" transform="translate(206,384)"/>
<path d="M0 0 C3.39939744 1.40664722 5.11569631 2.83094379 7 6 C8.72294692 10.8061151 9.20779166 14.90910443 9 20 C8.34 20 7.68 20 7 20 C6.82984375 19.20335937 6.6596875 18.40671875 6.484375 17.5859375 C5.09762459 11.52259261 3.77257314 6.9433717 0 2 C0 1.34 0 0.68 0 0 Z " fill="#F58631" transform="translate(295,186)"/>
<path d="M0 0 C2 2 2 2 2.22705078 3.97119141 C2.21657715 4.75671387 2.20610352 5.54223633 2.1953125 6.3515625 C2.18886719 7.20234375 2.18242187 8.053125 2.17578125 8.9296875 C2.15902344 9.81914062 2.14226562 10.70859375 2.125 11.625 C2.11597656 12.5221875 2.10695312 13.419375 2.09765625 14.34375 C2.0740497 16.56276586 2.0411231 18.78125077 2 21 C0.68 21 -0.64 21 -2 21 C-1.505 19.515 -1.505 19.515 -1 18 C-0.85507877 16.59335074 -0.75371069 15.1818867 -0.68359375 13.76953125 C-0.64169922 12.96708984 -0.59980469 12.16464844 -0.55664062 11.33789062 C-0.51732422 10.50451172 -0.47800781 9.67113281 -0.4375 8.8125 C-0.39431641 7.96751953 -0.35113281 7.12253906 -0.30664062 6.25195312 C-0.20068482 4.16815567 -0.0998498 2.08409897 0 0 Z " fill="#F5964C" transform="translate(214,140)"/>
<path d="M0 0 C0.66 0 1.32 0 2 0 C1.42846829 3.5622867 0.17941769 5.13056194 -2.4375 7.5625 C-4.69526817 9.67886307 -6.26012523 11.39018785 -8 14 C-8.66 14 -9.32 14 -10 14 C-10 13.34 -10 12.68 -10 12 C-10.66 11.67 -11.32 11.34 -12 11 C-11.01 10.34 -10.02 9.68 -9 9 C-8.34 9.33 -7.68 9.66 -7 10 C-7 9.34 -7 8.68 -7 8 C-6.34 8 -5.68 8 -5 8 C-4.731875 7.4225 -4.46375 6.845 -4.1875 6.25 C-2.97070811 3.94449957 -1.69666121 1.97943808 0 0 Z " fill="#F48B36" transform="translate(176,419)"/>
<path d="M0 0 C2.92869654 2.82410024 5.58427923 5.72152181 8 9 C8 9.66 8 10.32 8 11 C9.32 11.66 10.64 12.32 12 13 C12 13.66 12 14.32 12 15 C10.68 14.67 9.36 14.34 8 14 C8 13.34 8 12.68 8 12 C7.34 12 6.68 12 6 12 C4.4921875 10.390625 4.4921875 10.390625 2.875 8.25 C2.33617187 7.55390625 1.79734375 6.8578125 1.2421875 6.140625 C0 4 0 4 0 0 Z " fill="#F57F1F" transform="translate(170,258)"/>
<path d="M0 0 C0.33 0 0.66 0 1 0 C1.1875 2.3125 1.1875 2.3125 1 5 C0.525625 5.45375 0.05125 5.9075 -0.4375 6.375 C-2.85256539 8.88666801 -2.68264342 11.63602027 -3 15 C-3.99 15.33 -4.98 15.66 -6 16 C-6.67089255 10.80058273 -4.40971959 6.47644989 -2 2 C-1.34 1.34 -0.68 0.68 0 0 Z " fill="#F38A37" transform="translate(42,47)"/>
<path d="M0 0 C2.97851562 0.1953125 2.97851562 0.1953125 5.95703125 0.390625 C5.95703125 1.710625 5.95703125 3.030625 5.95703125 4.390625 C2.32703125 4.390625 -1.30296875 4.390625 -5.04296875 4.390625 C-2.04296875 0.390625 -2.04296875 0.390625 0 0 Z " fill="#F48A34" transform="translate(380.04296875,448.609375)"/>
<path d="M0 0 C5.23435005 4.27293882 9.67106815 8.81580806 14 14 C11 14 11 14 9.39453125 12.7578125 C8.87246094 12.21898437 8.35039062 11.68015625 7.8125 11.125 C7.28269531 10.59132813 6.75289063 10.05765625 6.20703125 9.5078125 C5 8 5 8 5 6 C4.34 6 3.68 6 3 6 C0 2.53846154 0 2.53846154 0 0 Z " fill="#F48B31" transform="translate(394,301)"/>
<path d="M0 0 C2.86697492 1.28519565 4.97607712 2.57129254 7 5 C7 5.66 7 6.32 7 7 C7.99 7.33 8.98 7.66 10 8 C10.99 9.485 10.99 9.485 12 11 C11.67 11.99 11.34 12.98 11 14 C10.38125 13.195625 9.7625 12.39125 9.125 11.5625 C7.25835959 8.96125481 7.25835959 8.96125481 5 8 C4.67 7.01 4.34 6.02 4 5 C2.67151309 3.99357052 1.33849671 2.99307821 0 2 C0 1.34 0 0.68 0 0 Z " fill="#F78B33" transform="translate(444,55)"/>
<path d="M0 0 C0.66 0 1.32 0 2 0 C0.43873668 3.83219177 -2.02866925 6.17361222 -5 9 C-5.556875 9.598125 -6.11375 10.19625 -6.6875 10.8125 C-8 12 -8 12 -10 12 C-8.55922954 8.63820226 -6.75249979 6.40843732 -4 4 C-3.34 4 -2.68 4 -2 4 C-1.34 2.68 -0.68 1.36 0 0 Z " fill="#F58835" transform="translate(415,428)"/>
<path d="M0 0 C-1.49271834 4.6138567 -3.73360028 7.49459542 -7 11 C-7.99 11.33 -8.98 11.66 -10 12 C-8.73050758 7.810675 -4.99190297 0 0 0 Z " fill="#F6771A" transform="translate(197,393)"/>
<path d="M0 0 C2.5 1.375 2.5 1.375 5 3 C5 3.66 5 4.32 5 5 C5.598125 5.28875 6.19625 5.5775 6.8125 5.875 C9 7 9 7 12 9 C12 9.66 12 10.32 12 11 C8.42185133 10.40364189 6.45577139 9.000066 3.75 6.625 C3.04359375 6.01914063 2.3371875 5.41328125 1.609375 4.7890625 C0 3 0 3 0 0 Z " fill="#F7741E" transform="translate(19,155)"/>
<path d="M0 0 C4.1724106 0.51881113 6.25416821 1.71151274 9.3125 4.5625 C10.00988281 5.20316406 10.70726562 5.84382813 11.42578125 6.50390625 C11.94527344 6.99761719 12.46476562 7.49132812 13 8 C12.34 8.66 11.68 9.32 11 10 C9.72390677 9.09066991 8.45434447 8.17217147 7.1875 7.25 C6.47980469 6.73953125 5.77210938 6.2290625 5.04296875 5.703125 C2.97022309 3.97517642 1.52624146 2.21473524 0 0 Z " fill="#F56F14" transform="translate(440,291)"/>
<path d="M0 0 C2.7019433 0.36512747 4.58390852 0.69869237 6.8125 2.3125 C8 4 8 4 8 8 C7.34 8 6.68 8 6 8 C6 9.98 6 11.96 6 14 C5.67 14 5.34 14 5 14 C4.67 11.69 4.34 9.38 4 7 C4.66 7 5.32 7 6 7 C3.28395285 4.12579877 3.28395285 4.12579877 0 2 C0 1.34 0 0.68 0 0 Z " fill="#F38D25" transform="translate(301,1)"/>
<path d="M0 0 C0 0.33 0 0.66 0 1 C-3.67387495 1.85298376 -7.0447393 2.10789471 -10.8125 2.0625 C-12.27623047 2.04896484 -12.27623047 2.04896484 -13.76953125 2.03515625 C-14.87361328 2.01775391 -14.87361328 2.01775391 -16 2 C-15.67 1.34 -15.34 0.68 -15 0 C-9.88129357 -1.40764427 -5.16172083 -0.7455819 0 0 Z " fill="#F6711A" transform="translate(101,425)"/>
<path d="M0 0 C3.23693164 1.48483103 5.9325625 3.32707435 8.75 5.5 C9.54921875 6.1084375 10.3484375 6.716875 11.171875 7.34375 C11.77515625 7.8903125 12.3784375 8.436875 13 9 C13 9.66 13 10.32 13 11 C9.67545017 10.42680175 8.26018355 9.45672125 6 7 C5.01 6.34 4.02 5.68 3 5 C3 4.34 3 3.68 3 3 C2.01 2.67 1.02 2.34 0 2 C0 1.34 0 0.68 0 0 Z " fill="#F58B34" transform="translate(86,213)"/>
<path d="M0 0 C0.556875 0.721875 1.11375 1.44375 1.6875 2.1875 C3.97909334 4.97457299 6.41459857 7.48641528 9 10 C8.67 10.99 8.34 11.98 8 13 C1.55458515 6.73362445 1.55458515 6.73362445 -1 3 C-0.67 2.01 -0.34 1.02 0 0 Z " fill="#F26B15" transform="translate(14,387)"/>
<path d="M0 0 C0.66 0.33 1.32 0.66 2 1 C1.24088921 2.48521677 0.46728766 3.96303425 -0.3125 5.4375 C-0.74175781 6.26121094 -1.17101563 7.08492187 -1.61328125 7.93359375 C-3 10 -3 10 -6 11 C-6 9.68 -6 8.36 -6 7 C-5.34 7 -4.68 7 -4 7 C-3.71125 6.21625 -3.4225 5.4325 -3.125 4.625 C-2 2 -2 2 0 0 Z " fill="#F38A36" transform="translate(50,33)"/>
<path d="M0 0 C0.99 0.33 1.98 0.66 3 1 C1.88321917 2.6721852 0.75633648 4.33762803 -0.375 6 C-1.00148437 6.928125 -1.62796875 7.85625 -2.2734375 8.8125 C-2.84320313 9.534375 -3.41296875 10.25625 -4 11 C-4.66 11 -5.32 11 -6 11 C-5.42435345 7.11438576 -3.48746646 4.95386643 -1 2 C-0.67 1.34 -0.34 0.68 0 0 Z " fill="#F47715" transform="translate(229,112)"/>
<path d="M0 0 C0.33 0.66 0.66 1.32 1 2 C-0.44460446 3.20943629 -1.88995639 4.41799573 -3.33984375 5.62109375 C-4.81455651 6.84597282 -6.28275747 8.07868242 -7.75 9.3125 C-10 11 -10 11 -12 11 C-10.68774191 7.06322574 -8.8038606 6.1728218 -5.4375 3.8125 C-4.42558594 3.09707031 -3.41367187 2.38164063 -2.37109375 1.64453125 C-1.58863281 1.10183594 -0.80617188 0.55914062 0 0 Z " fill="#F7871C" transform="translate(347,40)"/>
<path d="M0 0 C1.48280196 0.78483659 2.9611498 1.57809334 4.4375 2.375 C5.67306641 3.03628906 5.67306641 3.03628906 6.93359375 3.7109375 C9 5 9 5 10 7 C6.7 6.67 3.4 6.34 0 6 C0.66 5.34 1.32 4.68 2 4 C1.34 3.67 0.68 3.34 0 3 C0 2.01 0 1.02 0 0 Z " fill="#F78632" transform="translate(424,37)"/>
<path d="M0 0 C0.99 0 1.98 0 3 0 C4.9078584 3.1749094 5.1609041 5.10585211 4.625 8.75 C4.51414062 9.54921875 4.40328125 10.3484375 4.2890625 11.171875 C4.19367188 11.77515625 4.09828125 12.3784375 4 13 C3.67 13 3.34 13 3 13 C2.86722656 12.31292969 2.73445313 11.62585938 2.59765625 10.91796875 C2.42105469 10.01691406 2.24445313 9.11585938 2.0625 8.1875 C1.88847656 7.29417969 1.71445312 6.40085938 1.53515625 5.48046875 C1.02258847 2.88602829 1.02258847 2.88602829 0 0 Z " fill="#F6861A" transform="translate(296,192)"/>
<path d="M0 0 C0.66 0 1.32 0 2 0 C1.43009348 3.59357719 0.13617523 5.17249271 -2.5 7.625 C-5.11806646 10.03610916 -5.11806646 10.03610916 -7 13 C-7.66 13 -8.32 13 -9 13 C-7.4722133 9.56247993 -5.49818944 6.81046312 -3 4 C-2.34 4 -1.68 4 -1 4 C-0.67 2.68 -0.34 1.36 0 0 Z " fill="#F2842D" transform="translate(303,19)"/>
<path d="M0 0 C0.66 0 1.32 0 2 0 C2 3.3 2 6.6 2 10 C1.01 10.495 1.01 10.495 0 11 C-0.19406478 9.35492782 -0.38007935 7.70890406 -0.5625 6.0625 C-0.66691406 5.14597656 -0.77132812 4.22945313 -0.87890625 3.28515625 C-0.91886719 2.53105469 -0.95882812 1.77695312 -1 1 C-0.67 0.67 -0.34 0.34 0 0 Z " fill="#F37017" transform="translate(158,439)"/>
<path d="M0 0 C7.48291572 6.15034169 7.48291572 6.15034169 10 10 C6.7451198 9.41978222 5.06347592 8.47352859 2.75 6.125 C2.22921875 5.61195313 1.7084375 5.09890625 1.171875 4.5703125 C0 3 0 3 0 0 Z " fill="#F47517" transform="translate(194,284)"/>
<path d="M0 0 C5.01202555 2.98334854 8.38748484 6.43951988 12 11 C11.01 11.33 10.02 11.66 9 12 C7.86966702 10.75482035 6.74594964 9.50363348 5.625 8.25 C4.99851562 7.55390625 4.37203125 6.8578125 3.7265625 6.140625 C2.12494817 4.15491312 1.03479932 2.32045907 0 0 Z " fill="#F4832D" transform="translate(62,139)"/>
<path d="M0 0 C0.99 0 1.98 0 3 0 C2.67 0.99 2.34 1.98 2 3 C1.34 3 0.68 3 0 3 C0 3.66 0 4.32 0 5 C-5.47619048 10 -5.47619048 10 -8 10 C-6.66415278 5.99245833 -4.23106172 4.62523764 -1 2 C-0.67 1.34 -0.34 0.68 0 0 Z " fill="#F68630" transform="translate(322,62)"/>
<path d="M0 0 C0.66 0.33 1.32 0.66 2 1 C2.36717663 8.4659249 2.36717663 8.4659249 0.625 11 C-1 12 -1 12 -3 12 C-2.690625 11.319375 -2.38125 10.63875 -2.0625 9.9375 C-0.86629351 6.63034088 -0.40994603 3.48454122 0 0 Z " fill="#F26E11" transform="translate(308,10)"/>
<path d="M0 0 C0.99 0 1.98 0 3 0 C3 0.66 3 1.32 3 2 C3.66 2.33 4.32 2.66 5 3 C-0.625 7 -0.625 7 -4 7 C-4 6.34 -4 5.68 -4 5 C-3.01 4.34 -2.02 3.68 -1 3 C-0.67 2.01 -0.34 1.02 0 0 Z " fill="#F88A23" transform="translate(402,440)"/>
<path d="M0 0 C0.99 0.33 1.98 0.66 3 1 C1.73742767 2.17560179 0.46462916 3.34022865 -0.8125 4.5 C-1.87404297 5.47453125 -1.87404297 5.47453125 -2.95703125 6.46875 C-5 8 -5 8 -8 8 C-8 7.34 -8 6.68 -8 6 C-6.35546875 4.45703125 -6.35546875 4.45703125 -4.1875 2.8125 C-3.47980469 2.26207031 -2.77210938 1.71164062 -2.04296875 1.14453125 C-1.36878906 0.76683594 -0.69460938 0.38914062 0 0 Z " fill="#F76D1E" transform="translate(413,434)"/>
<path d="M0 0 C4.83766699 0.41465717 6.85646376 2.4198615 10 6 C10.33 6.66 10.66 7.32 11 8 C6.16233301 7.58534283 4.14353624 5.5801385 1 2 C0.67 1.34 0.34 0.68 0 0 Z " fill="#F66C0F" transform="translate(389,249)"/>
<path d="M0 0 C3.5786304 1.65167557 6.74820188 3.78286492 10 6 C9.67 6.99 9.34 7.98 9 9 C7.49428343 7.88266271 5.99555708 6.75589965 4.5 5.625 C3.6646875 4.99851563 2.829375 4.37203125 1.96875 3.7265625 C1.3190625 3.15679687 0.669375 2.58703125 0 2 C0 1.34 0 0.68 0 0 Z " fill="#F77D20" transform="translate(112,230)"/>
<path d="M0 0 C0.99 0.33 1.98 0.66 3 1 C2.34 1 1.68 1 1 1 C0.87625 1.53625 0.7525 2.0725 0.625 2.625 C-0.12206016 5.4638286 -1.05303364 8.22223202 -2 11 C-2.66 10.34 -3.32 9.68 -4 9 C-3.69670231 5.15822926 -2.47524576 2.90572328 0 0 Z " fill="#F36E17" transform="translate(221,124)"/>
<path d="M0 0 C0.33 0.66 0.66 1.32 1 2 C0.05016642 3.50539661 -0.91011891 5.00420347 -1.875 6.5 C-2.40867188 7.3353125 -2.94234375 8.170625 -3.4921875 9.03125 C-3.98976562 9.6809375 -4.48734375 10.330625 -5 11 C-5.66 11 -6.32 11 -7 11 C-6.38441495 6.9986972 -4.36262141 4.22175647 -2 1 C-1.34 0.67 -0.68 0.34 0 0 Z " fill="#F2842D" transform="translate(248,85)"/>
<path d="M0 0 C6.75 0.875 6.75 0.875 9 2 C9 2.66 9 3.32 9 4 C3.375 4.25 3.375 4.25 0 2 C0 1.34 0 0.68 0 0 Z " fill="#F48735" transform="translate(57,419)"/>
<path d="M0 0 C3.15330554 0.60694155 5.18888867 1.6416665 7.75 3.5625 C8.67039062 4.24505859 8.67039062 4.24505859 9.609375 4.94140625 C10.29773438 5.46541016 10.29773438 5.46541016 11 6 C9.234375 6.64453125 9.234375 6.64453125 7 7 C5.078125 6.07421875 5.078125 6.07421875 3.25 4.6875 C2.63640625 4.23761719 2.0228125 3.78773438 1.390625 3.32421875 C0.93171875 2.88722656 0.4728125 2.45023438 0 2 C0 1.34 0 0.68 0 0 Z " fill="#F57E1C" transform="translate(100,222)"/>
<path d="M0 0 C3.125 -0.1875 3.125 -0.1875 6 0 C1.25 4 1.25 4 -1 4 C-1.33 4.99 -1.66 5.98 -2 7 C-2.66 7 -3.32 7 -4 7 C-2.79618552 4.50638429 -1.54571278 2.31856917 0 0 Z " fill="#F48834" transform="translate(196,162)"/>
<path d="M0 0 C0.99 0.33 1.98 0.66 3 1 C0.11658466 5.21422242 -2.04303419 6.76075855 -7 8 C-6.02133662 6.85373678 -5.04205413 5.70800212 -4.0625 4.5625 C-3.51722656 3.92441406 -2.97195313 3.28632812 -2.41015625 2.62890625 C-1.63204305 1.73008851 -0.84063472 0.84063472 0 0 Z " fill="#F67210" transform="translate(307,74)"/>
<path d="M0 0 C3.125 -0.1875 3.125 -0.1875 6 0 C6 0.66 6 1.32 6 2 C6.66 2.33 7.32 2.66 8 3 C4.7 3 1.4 3 -2 3 C-1.34 2.01 -0.68 1.02 0 0 Z " fill="#F78E30" transform="translate(100,420)"/>
<path d="M0 0 C0.66 0 1.32 0 2 0 C1.67 1.65 1.34 3.3 1 5 C0.01 5.33 -0.98 5.66 -2 6 C-2 6.66 -2 7.32 -2 8 C-2.99 7.67 -3.98 7.34 -5 7 C-4.67 6.34 -4.34 5.68 -4 5 C-3.34 5 -2.68 5 -2 5 C-1.34 3.35 -0.68 1.7 0 0 Z " fill="#F58730" transform="translate(184,409)"/>
<path d="M0 0 C4.24846075 0.47205119 6.26819288 2.88877522 9 6 C9 6.66 9 7.32 9 8 C5.56247993 6.4722133 2.81046312 4.49818944 0 2 C0 1.34 0 0.68 0 0 Z " fill="#F5842E" transform="translate(440,287)"/>
<path d="M0 0 C3.99455527 0.61454696 6.74466336 2.70646737 10 5 C9.67 5.66 9.34 6.32 9 7 C5.88626628 5.50079488 2.87771795 3.91847864 0 2 C0 1.34 0 0.68 0 0 Z " fill="#F98A1C" transform="translate(351,261)"/>
<path d="M0 0 C2.475 0.495 2.475 0.495 5 1 C5.33 1.99 5.66 2.98 6 4 C8.00016466 5.20882096 8.00016466 5.20882096 10 6 C9.01 6.33 8.02 6.66 7 7 C5.17578125 5.8203125 5.17578125 5.8203125 3.3125 4.125 C2.68988281 3.57070312 2.06726562 3.01640625 1.42578125 2.4453125 C0 1 0 1 0 0 Z " fill="#F87919" transform="translate(51,183)"/>
<path d="M0 0 C0.99 0 1.98 0 3 0 C2.67 0.99 2.34 1.98 2 3 C1.34 3 0.68 3 0 3 C-0.268125 3.639375 -0.53625 4.27875 -0.8125 4.9375 C-2 7 -2 7 -5 8 C-3.63029745 5.04987143 -2.17390875 2.4347778 0 0 Z " fill="#F37612" transform="translate(255,79)"/>
<path d="M0 0 C1.4370809 -0.05422947 2.87475462 -0.09289723 4.3125 -0.125 C5.11300781 -0.14820313 5.91351563 -0.17140625 6.73828125 -0.1953125 C9 0 9 0 12 2 C7.48281619 3.36884358 4.41225737 2.47075246 0 1 C0 0.67 0 0.34 0 0 Z " fill="#F47117" transform="translate(62,424)"/>
<path d="M0 0 C6.75 3.75 6.75 3.75 9 6 C6 7 6 7 4.17578125 6.22265625 C2.45052083 5.1484375 0.72526042 4.07421875 -1 3 C-0.67 2.01 -0.34 1.02 0 0 Z " fill="#F76A15" transform="translate(125,238)"/>
<path d="M0 0 C2.31 0 4.62 0 7 0 C7.33 0.99 7.66 1.98 8 3 C5.36 3 2.72 3 0 3 C0 2.01 0 1.02 0 0 Z " fill="#F79041" transform="translate(406,32)"/>
<path d="M0 0 C0.66 0.33 1.32 0.66 2 1 C2.59355614 3.64860427 2.74209269 6.29197322 3 9 C2.34 9 1.68 9 1 9 C0.63877119 7.68942607 0.28619689 6.37646376 -0.0625 5.0625 C-0.35833984 3.96615234 -0.35833984 3.96615234 -0.66015625 2.84765625 C-0.77230469 2.23792969 -0.88445312 1.62820313 -1 1 C-0.67 0.67 -0.34 0.34 0 0 Z " fill="#F46F10" transform="translate(3,361)"/>
<path d="M0 0 C0.66 0 1.32 0 2 0 C0.87548273 2.9719385 -0.22293791 5.33440687 -2 8 C-2.99 7.67 -3.98 7.34 -5 7 C-4.21654285 5.82780457 -3.42297164 4.66236332 -2.625 3.5 C-2.18414062 2.8503125 -1.74328125 2.200625 -1.2890625 1.53125 C-0.65097656 0.77328125 -0.65097656 0.77328125 0 0 Z " fill="#F3852B" transform="translate(229,109)"/>
<path d="M0 0 C-0.39803561 2.88575819 -0.79009069 3.82189513 -3.0625 5.75 C-3.701875 6.1625 -4.34125 6.575 -5 7 C-5.66 6.67 -6.32 6.34 -7 6 C-5.81636731 2.44910192 -3.99368042 0 0 0 Z " fill="#F4852E" transform="translate(297,90)"/>
<path d="M0 0 C0.66 0.33 1.32 0.66 2 1 C1.67 3.97 1.34 6.94 1 10 C0.34 9.67 -0.32 9.34 -1 9 C-1.125 2.25 -1.125 2.25 0 0 Z " fill="#F36E18" transform="translate(437,388)"/>
<path d="M0 0 C-2.55068845 2.35448165 -3.71017358 2.98327924 -7.25 3.1875 C-8.1575 3.125625 -9.065 3.06375 -10 3 C-10 2.34 -10 1.68 -10 1 C-3.375 -1.125 -3.375 -1.125 0 0 Z " fill="#F38936" transform="translate(465,297)"/>
<path d="M0 0 C0.66 0 1.32 0 2 0 C0.4169423 4.2742558 -2.50568404 6.26531794 -6 9 C-5.1875 6.5625 -5.1875 6.5625 -4 4 C-3.01 3.67 -2.02 3.34 -1 3 C-0.67 2.01 -0.34 1.02 0 0 Z " fill="#F4832C" transform="translate(304,80)"/>
<path d="M0 0 C0.99 0 1.98 0 3 0 C4.25664978 2.90600261 5 4.79604584 5 8 C4.34 8 3.68 8 3 8 C2.01 5.36 1.02 2.72 0 0 Z " fill="#F37218" transform="translate(6,375)"/>
<path d="M0 0 C1.65 0.99 3.3 1.98 5 3 C4.34 4.32 3.68 5.64 3 7 C1.68 5.68 0.36 4.36 -1 3 C-0.67 2.01 -0.34 1.02 0 0 Z " fill="#F6731A" transform="translate(166,246)"/>
<path d="M0 0 C0.66 0 1.32 0 2 0 C3.7143618 1.95927063 5.38405168 3.95880212 7 6 C6.01 6.495 6.01 6.495 5 7 C3.29115995 5.37660195 1.62553283 3.70680947 0 2 C0 1.34 0 0.68 0 0 Z " fill="#F76C09" transform="translate(104,181)"/>
<path d="M0 0 C2.625 -0.1875 2.625 -0.1875 5 0 C5 0.66 5 1.32 5 2 C3.1875 3.0625 3.1875 3.0625 1 4 C0.01 3.67 -0.98 3.34 -2 3 C-1.34 2.01 -0.68 1.02 0 0 Z " fill="#F48935" transform="translate(110,415)"/>
<path d="M0 0 C0 3.9519815 -1.37176172 5.14648416 -4 8 C-4.99 8.33 -5.98 8.66 -7 9 C-5.44499019 5.18315774 -2.96404505 2.80804268 0 0 Z " fill="#F78B34" transform="translate(296,264)"/>
<path d="M0 0 C1.7074998 1.28062485 3.37373596 2.61767557 5 4 C5 4.66 5 5.32 5 6 C2.525 5.01 2.525 5.01 0 4 C0 2.68 0 1.36 0 0 Z " fill="#F56C19" transform="translate(293,186)"/>
<path d="M0 0 C2.88437779 1.29299694 4.87219421 2.65941363 7 5 C6.34 5.66 5.68 6.32 5 7 C3.29115995 5.37660195 1.62553283 3.70680947 0 2 C0 1.34 0 0.68 0 0 Z " fill="#F89925" transform="translate(39,172)"/>
<path d="M0 0 C-0.25561323 2.3431213 -0.59270772 4.67843403 -1 7 C-1.99 7.495 -1.99 7.495 -3 8 C-3 5.69 -3 3.38 -3 1 C-1 0 -1 0 0 0 Z " fill="#F2761C" transform="translate(35,61)"/>
<path d="M0 0 C4.55737263 0.43820891 7.57653445 0.85041169 11 4 C9.53984709 3.71758359 8.08190207 3.42373386 6.625 3.125 C5.81289063 2.96257813 5.00078125 2.80015625 4.1640625 2.6328125 C2 2 2 2 0 0 Z " fill="#F8951A" transform="translate(402,28)"/>
<path d="M0 0 C0.33 0.66 0.66 1.32 1 2 C0.0625 4.125 0.0625 4.125 -1 6 C-1.66 6 -2.32 6 -3 6 C-3 5.34 -3 4.68 -3 4 C-3.66 3.67 -4.32 3.34 -5 3 C-4.34 2.34 -3.68 1.68 -3 1 C-2.34 1 -1.68 1 -1 1 C-0.67 0.67 -0.34 0.34 0 0 Z " fill="#F48832" transform="translate(164,434)"/>
<path d="M0 0 C0.66 0.66 1.32 1.32 2 2 C0.35 3.32 -1.3 4.64 -3 6 C-3.66 5.34 -4.32 4.68 -5 4 C-3.35 2.68 -1.7 1.36 0 0 Z " fill="#F5721E" transform="translate(128,407)"/>
<path d="M0 0 C3.25543229 0.34879632 4.01873107 1.02133261 6.25 3.5625 C6.8275 4.366875 7.405 5.17125 8 6 C5 6 5 6 3.61328125 4.6875 C2.40885417 3.125 1.20442708 1.5625 0 0 Z " fill="#F69517" transform="translate(401,307)"/>
</svg>
